<svg width="832" height="23" viewBox="0 0 832 23" fill="none" xmlns="http://www.w3.org/2000/svg">
<path d="M0.707465 17.6506V0.942355H6.54882C7.71273 0.942355 8.6727 1.14359 9.4287 1.54607C10.1847 1.94311 10.7476 2.47884 11.1175 3.15326C11.4873 3.82224 11.6722 4.56464 11.6722 5.38048C11.6722 6.09841 11.5444 6.69124 11.2888 7.15899C11.0386 7.62673 10.7068 7.99657 10.2935 8.26852C9.88556 8.54046 9.4423 8.7417 8.96367 8.87223V9.0354C9.47493 9.06803 9.9889 9.24751 10.5056 9.57385C11.0223 9.90018 11.4547 10.3679 11.8028 10.9771C12.1509 11.5862 12.3249 12.3314 12.3249 13.2125C12.3249 14.05 12.1345 14.8033 11.7538 15.4723C11.3731 16.1413 10.7721 16.6716 9.95083 17.0632C9.12956 17.4548 8.06082 17.6506 6.74461 17.6506H0.707465ZM2.73073 15.8557H6.74461C8.06626 15.8557 9.00447 15.6001 9.55923 15.0889C10.1194 14.5722 10.3995 13.9467 10.3995 13.2125C10.3995 12.6468 10.2554 12.1247 9.96715 11.6461C9.67889 11.162 9.26825 10.7758 8.73524 10.4876C8.20223 10.1939 7.57132 10.047 6.84251 10.047H2.73073V15.8557ZM2.73073 8.28483H6.48355C7.0927 8.28483 7.64203 8.16518 8.13153 7.92587C8.62646 7.68656 9.01806 7.34935 9.30632 6.91424C9.60002 6.47913 9.74687 5.96787 9.74687 5.38048C9.74687 4.64623 9.49125 4.02348 8.97999 3.51222C8.46874 2.99553 7.65835 2.73718 6.54882 2.73718H2.73073V8.28483ZM20.4791 17.9116C19.3478 17.9116 18.3552 17.6424 17.5013 17.104C16.6529 16.5655 15.9893 15.8122 15.5107 14.8441C15.0375 13.876 14.8009 12.7447 14.8009 11.4503C14.8009 10.1449 15.0375 9.00548 15.5107 8.03193C15.9893 7.05837 16.6529 6.30236 17.5013 5.76392C18.3552 5.22547 19.3478 4.95624 20.4791 4.95624C21.6104 4.95624 22.6003 5.22547 23.4488 5.76392C24.3027 6.30236 24.9662 7.05837 25.4394 8.03193C25.918 9.00548 26.1573 10.1449 26.1573 11.4503C26.1573 12.7447 25.918 13.876 25.4394 14.8441C24.9662 15.8122 24.3027 16.5655 23.4488 17.104C22.6003 17.6424 21.6104 17.9116 20.4791 17.9116ZM20.4791 16.1821C21.3385 16.1821 22.0455 15.9618 22.6003 15.5213C23.1551 15.0807 23.5657 14.5015 23.8322 13.7835C24.0987 13.0656 24.232 12.2878 24.232 11.4503C24.232 10.6127 24.0987 9.83219 23.8322 9.10882C23.5657 8.38545 23.1551 7.80077 22.6003 7.35479C22.0455 6.9088 21.3385 6.6858 20.4791 6.6858C19.6198 6.6858 18.9127 6.9088 18.358 7.35479C17.8032 7.80077 17.3926 8.38545 17.1261 9.10882C16.8596 9.83219 16.7263 10.6127 16.7263 11.4503C16.7263 12.2878 16.8596 13.0656 17.1261 13.7835C17.3926 14.5015 17.8032 15.0807 18.358 15.5213C18.9127 15.9618 19.6198 16.1821 20.4791 16.1821ZM29.0963 17.6506V5.11941H30.9564V7.0774H31.1196C31.3807 6.40842 31.8022 5.88901 32.3841 5.51917C32.9661 5.14388 33.665 4.95624 34.4808 4.95624C35.3075 4.95624 35.9956 5.14388 36.5449 5.51917C37.0996 5.88901 37.532 6.40842 37.8421 7.0774H37.9726C38.2935 6.43018 38.7748 5.9162 39.4166 5.53548C40.0584 5.14932 40.828 4.95624 41.7254 4.95624C42.8458 4.95624 43.7623 5.30705 44.4748 6.00866C45.1873 6.70484 45.5435 7.7899 45.5435 9.26383V17.6506H43.6181V9.26383C43.6181 8.33922 43.3652 7.6784 42.8594 7.28136C42.3536 6.88432 41.758 6.6858 41.0727 6.6858C40.1916 6.6858 39.5091 6.95231 39.025 7.48532C38.5409 8.01289 38.2989 8.68187 38.2989 9.49226V17.6506H36.3409V9.06803C36.3409 8.35554 36.1098 7.78174 35.6475 7.34663C35.1852 6.90608 34.5896 6.6858 33.8608 6.6858C33.3604 6.6858 32.8927 6.81906 32.4576 7.08556C32.0279 7.35207 31.6798 7.72191 31.4133 8.19509C31.1522 8.66284 31.0217 9.204 31.0217 9.8186V17.6506H29.0963ZM60.257 17.9116C59.2127 17.9116 58.2909 17.6479 57.4913 17.1203C56.6918 16.5873 56.0664 15.8367 55.6149 14.8686C55.1635 13.895 54.9378 12.7447 54.9378 11.4176C54.9378 10.1014 55.1635 8.95925 55.6149 7.99113C56.0664 7.02302 56.6945 6.27517 57.4995 5.7476C58.3045 5.22003 59.2345 4.95624 60.2896 4.95624C61.1055 4.95624 61.75 5.09222 62.2232 5.36416C62.7018 5.63066 63.0662 5.93524 63.3164 6.27789C63.572 6.6151 63.7705 6.89248 63.9119 7.11004H64.0751V0.942355H66.0005V17.6506H64.1404V15.7252H63.9119C63.7705 15.9536 63.5693 16.2419 63.3082 16.59C63.0471 16.9326 62.6746 17.2399 62.1905 17.5119C61.7065 17.7784 61.062 17.9116 60.257 17.9116ZM60.5181 16.1821C61.2904 16.1821 61.9431 15.9808 62.4761 15.5784C63.0091 15.1704 63.4143 14.6075 63.6917 13.8896C63.969 13.1662 64.1077 12.3314 64.1077 11.385C64.1077 10.4495 63.9718 9.63095 63.6998 8.92934C63.4279 8.22229 63.0254 7.67296 62.4924 7.28136C61.9594 6.88432 61.3013 6.6858 60.5181 6.6858C59.7022 6.6858 59.0224 6.8952 58.4785 7.31399C57.94 7.72735 57.5349 8.29027 57.2629 9.00276C56.9964 9.70982 56.8632 10.5039 56.8632 11.385C56.8632 12.277 56.9991 13.0874 57.2711 13.8162C57.5484 14.5395 57.9564 15.1161 58.4948 15.5457C59.0387 15.97 59.7131 16.1821 60.5181 16.1821ZM69.7941 17.6506V5.11941H71.7194V17.6506H69.7941ZM70.7731 3.03088C70.3978 3.03088 70.0742 2.90307 69.8022 2.64744C69.5357 2.39181 69.4025 2.08452 69.4025 1.72555C69.4025 1.36659 69.5357 1.05929 69.8022 0.803663C70.0742 0.548037 70.3978 0.420223 70.7731 0.420223C71.1484 0.420223 71.4692 0.548037 71.7357 0.803663C72.0077 1.05929 72.1437 1.36659 72.1437 1.72555C72.1437 2.08452 72.0077 2.39181 71.7357 2.64744C71.4692 2.90307 71.1484 3.03088 70.7731 3.03088ZM78.9334 17.9443C78.1393 17.9443 77.4187 17.7947 76.7715 17.4956C76.1242 17.191 75.6103 16.7532 75.2295 16.1821C74.8488 15.6056 74.6585 14.9094 74.6585 14.0936C74.6585 13.3756 74.7999 12.7937 75.0827 12.3477C75.3655 11.8962 75.7435 11.5427 76.2167 11.2871C76.6899 11.0315 77.212 10.8411 77.7831 10.716C78.3596 10.5855 78.9389 10.4821 79.5208 10.406C80.2823 10.3081 80.8996 10.2347 81.3728 10.1857C81.8514 10.1313 82.1995 10.0416 82.417 9.9165C82.64 9.7914 82.7515 9.57385 82.7515 9.26383V9.19856C82.7515 8.39361 82.5312 7.76814 82.0907 7.32215C81.6556 6.87617 80.9947 6.65317 80.1082 6.65317C79.189 6.65317 78.4684 6.85441 77.9463 7.25689C77.4241 7.65936 77.057 8.08903 76.8449 8.5459L75.0174 7.89323C75.3438 7.13179 75.7789 6.53896 76.3228 6.11472C76.8721 5.68505 77.4704 5.38591 78.1176 5.21731C78.7703 5.04327 79.412 4.95624 80.0429 4.95624C80.4454 4.95624 80.9077 5.00519 81.4299 5.10309C81.9574 5.19555 82.466 5.38863 82.9555 5.68233C83.4504 5.97603 83.861 6.4193 84.1874 7.01214C84.5137 7.60497 84.6769 8.39905 84.6769 9.39436V17.6506H82.7515V15.9536H82.6536C82.5231 16.2256 82.3055 16.5166 82.0009 16.8266C81.6964 17.1366 81.2912 17.4004 80.7854 17.6179C80.2795 17.8355 79.6622 17.9443 78.9334 17.9443ZM79.2271 16.2147C79.9886 16.2147 80.6303 16.0651 81.1525 15.766C81.68 15.4669 82.0771 15.0807 82.3436 14.6075C82.6155 14.1343 82.7515 13.6367 82.7515 13.1146V11.3524C82.6699 11.4503 82.4904 11.54 82.2131 11.6216C81.9411 11.6977 81.6257 11.7657 81.2667 11.8255C80.9132 11.8799 80.5678 11.9289 80.2306 11.9724C79.8988 12.0105 79.6296 12.0431 79.4229 12.0703C78.9225 12.1356 78.4548 12.2416 78.0197 12.3885C77.59 12.5299 77.2419 12.7447 76.9754 13.033C76.7144 13.3158 76.5838 13.702 76.5838 14.1915C76.5838 14.8604 76.8313 15.3662 77.3262 15.7089C77.8266 16.0461 78.4602 16.2147 79.2271 16.2147ZM91.0628 15.3662L90.9323 16.2473C90.8398 16.8674 90.6984 17.5309 90.508 18.238C90.3231 18.945 90.13 19.6113 89.9288 20.2368C89.7275 20.8622 89.5617 21.3599 89.4311 21.7297H87.9626C88.0333 21.3816 88.1258 20.9221 88.24 20.351C88.3542 19.7799 88.4684 19.1408 88.5827 18.4338C88.7023 17.7322 88.8002 17.0142 88.8764 16.28L88.9743 15.3662H91.0628ZM101.352 17.6506V0.942355H106.998C108.303 0.942355 109.375 1.16535 110.212 1.61134C111.05 2.05188 111.67 2.65832 112.072 3.43064C112.475 4.20296 112.676 5.08134 112.676 6.06577C112.676 7.05021 112.475 7.92315 112.072 8.68459C111.67 9.44603 111.053 10.0443 110.221 10.4794C109.388 10.9091 108.325 11.1239 107.031 11.1239H102.462V9.29646H106.965C107.857 9.29646 108.575 9.16593 109.119 8.90486C109.668 8.6438 110.066 8.27396 110.31 7.79534C110.56 7.31128 110.686 6.73475 110.686 6.06577C110.686 5.39679 110.56 4.81211 110.31 4.31174C110.06 3.81136 109.66 3.4252 109.111 3.15326C108.562 2.87587 107.836 2.73718 106.933 2.73718H103.376V17.6506H101.352ZM109.217 10.1449L113.329 17.6506H110.979L106.933 10.1449H109.217ZM120.743 17.9116C119.611 17.9116 118.619 17.6424 117.765 17.104C116.916 16.5655 116.253 15.8122 115.774 14.8441C115.301 13.876 115.065 12.7447 115.065 11.4503C115.065 10.1449 115.301 9.00548 115.774 8.03193C116.253 7.05837 116.916 6.30236 117.765 5.76392C118.619 5.22547 119.611 4.95624 120.743 4.95624C121.874 4.95624 122.864 5.22547 123.712 5.76392C124.566 6.30236 125.23 7.05837 125.703 8.03193C126.182 9.00548 126.421 10.1449 126.421 11.4503C126.421 12.7447 126.182 13.876 125.703 14.8441C125.23 15.8122 124.566 16.5655 123.712 17.104C122.864 17.6424 121.874 17.9116 120.743 17.9116ZM120.743 16.1821C121.602 16.1821 122.309 15.9618 122.864 15.5213C123.419 15.0807 123.829 14.5015 124.096 13.7835C124.362 13.0656 124.496 12.2878 124.496 11.4503C124.496 10.6127 124.362 9.83219 124.096 9.10882C123.829 8.38545 123.419 7.80077 122.864 7.35479C122.309 6.9088 121.602 6.6858 120.743 6.6858C119.883 6.6858 119.176 6.9088 118.622 7.35479C118.067 7.80077 117.656 8.38545 117.39 9.10882C117.123 9.83219 116.99 10.6127 116.99 11.4503C116.99 12.2878 117.123 13.0656 117.39 13.7835C117.656 14.5015 118.067 15.0807 118.622 15.5213C119.176 15.9618 119.883 16.1821 120.743 16.1821ZM134.092 17.9116C133.047 17.9116 132.126 17.6479 131.326 17.1203C130.527 16.5873 129.901 15.8367 129.45 14.8686C128.998 13.895 128.773 12.7447 128.773 11.4176C128.773 10.1014 128.998 8.95925 129.45 7.99113C129.901 7.02302 130.529 6.27517 131.334 5.7476C132.139 5.22003 133.069 4.95624 134.124 4.95624C134.94 4.95624 135.585 5.09222 136.058 5.36416C136.537 5.63066 136.901 5.93524 137.151 6.27789C137.407 6.6151 137.605 6.89248 137.747 7.11004H137.91V0.942355H139.835V17.6506H137.975V15.7252H137.747C137.605 15.9536 137.404 16.2419 137.143 16.59C136.882 16.9326 136.509 17.2399 136.025 17.5119C135.541 17.7784 134.897 17.9116 134.092 17.9116ZM134.353 16.1821C135.125 16.1821 135.778 15.9808 136.311 15.5784C136.844 15.1704 137.249 14.6075 137.526 13.8896C137.804 13.1662 137.942 12.3314 137.942 11.385C137.942 10.4495 137.806 9.63095 137.535 8.92934C137.263 8.22229 136.86 7.67296 136.327 7.28136C135.794 6.88432 135.136 6.6858 134.353 6.6858C133.537 6.6858 132.857 6.8952 132.313 7.31399C131.775 7.72735 131.37 8.29027 131.098 9.00276C130.831 9.70982 130.698 10.5039 130.698 11.385C130.698 12.277 130.834 13.0874 131.106 13.8162C131.383 14.5395 131.791 15.1161 132.33 15.5457C132.873 15.97 133.548 16.1821 134.353 16.1821ZM143.629 17.6506V5.11941H145.489V7.01214H145.619C145.848 6.39211 146.261 5.88901 146.86 5.50285C147.458 5.11669 148.132 4.92361 148.883 4.92361C149.024 4.92361 149.201 4.92633 149.413 4.93177C149.625 4.93721 149.786 4.94537 149.894 4.95624V6.91424C149.829 6.89792 149.68 6.87345 149.446 6.84081C149.217 6.80274 148.975 6.7837 148.72 6.7837C148.11 6.7837 147.567 6.91152 147.088 7.16715C146.615 7.41733 146.239 7.76542 145.962 8.21141C145.69 8.65196 145.554 9.15505 145.554 9.7207V17.6506H143.629ZM152.177 17.6506V5.11941H154.102V17.6506H152.177ZM153.156 3.03088C152.78 3.03088 152.457 2.90307 152.185 2.64744C151.918 2.39181 151.785 2.08452 151.785 1.72555C151.785 1.36659 151.918 1.05929 152.185 0.803663C152.457 0.548037 152.78 0.420223 153.156 0.420223C153.531 0.420223 153.852 0.548037 154.118 0.803663C154.39 1.05929 154.526 1.36659 154.526 1.72555C154.526 2.08452 154.39 2.39181 154.118 2.64744C153.852 2.90307 153.531 3.03088 153.156 3.03088ZM162.687 22.6108C161.757 22.6108 160.957 22.4912 160.288 22.2519C159.619 22.018 159.062 21.708 158.616 21.3218C158.175 20.9411 157.824 20.5332 157.563 20.0981L159.097 19.0212C159.271 19.2496 159.491 19.5107 159.758 19.8044C160.024 20.1035 160.389 20.3619 160.851 20.5794C161.319 20.8024 161.931 20.9139 162.687 20.9139C163.698 20.9139 164.533 20.6691 165.191 20.1796C165.849 19.6902 166.178 18.9233 166.178 17.879V15.3336H166.015C165.874 15.562 165.673 15.8449 165.412 16.1821C165.156 16.5138 164.786 16.8103 164.302 17.0713C163.823 17.327 163.176 17.4548 162.36 17.4548C161.349 17.4548 160.44 17.2155 159.635 16.7368C158.836 16.2582 158.202 15.562 157.735 14.6483C157.272 13.7346 157.041 12.6251 157.041 11.3197C157.041 10.0362 157.267 8.91846 157.718 7.96666C158.17 7.00942 158.798 6.26973 159.603 5.7476C160.408 5.22003 161.338 4.95624 162.393 4.95624C163.209 4.95624 163.856 5.09222 164.335 5.36416C164.819 5.63066 165.189 5.93524 165.444 6.27789C165.705 6.6151 165.906 6.89248 166.048 7.11004H166.244V5.11941H168.104V18.0095C168.104 19.0864 167.859 19.9621 167.37 20.6365C166.885 21.3164 166.233 21.814 165.412 22.1295C164.596 22.4504 163.687 22.6108 162.687 22.6108ZM162.621 15.7252C163.394 15.7252 164.046 15.5484 164.579 15.1949C165.112 14.8414 165.518 14.3329 165.795 13.6693C166.072 13.0058 166.211 12.2117 166.211 11.2871C166.211 10.3842 166.075 9.58744 165.803 8.89671C165.531 8.20597 165.129 7.6648 164.596 7.2732C164.063 6.8816 163.405 6.6858 162.621 6.6858C161.806 6.6858 161.126 6.89248 160.582 7.30584C160.043 7.71919 159.638 8.27396 159.366 8.97013C159.1 9.66631 158.966 10.4386 158.966 11.2871C158.966 12.1573 159.102 12.9269 159.374 13.5959C159.652 14.2594 160.06 14.7816 160.598 15.1623C161.142 15.5376 161.816 15.7252 162.621 15.7252ZM176.719 17.9116C175.588 17.9116 174.595 17.6424 173.741 17.104C172.893 16.5655 172.229 15.8122 171.751 14.8441C171.277 13.876 171.041 12.7447 171.041 11.4503C171.041 10.1449 171.277 9.00548 171.751 8.03193C172.229 7.05837 172.893 6.30236 173.741 5.76392C174.595 5.22547 175.588 4.95624 176.719 4.95624C177.85 4.95624 178.84 5.22547 179.689 5.76392C180.542 6.30236 181.206 7.05837 181.679 8.03193C182.158 9.00548 182.397 10.1449 182.397 11.4503C182.397 12.7447 182.158 13.876 181.679 14.8441C181.206 15.8122 180.542 16.5655 179.689 17.104C178.84 17.6424 177.85 17.9116 176.719 17.9116ZM176.719 16.1821C177.578 16.1821 178.285 15.9618 178.84 15.5213C179.395 15.0807 179.805 14.5015 180.072 13.7835C180.338 13.0656 180.472 12.2878 180.472 11.4503C180.472 10.6127 180.338 9.83219 180.072 9.10882C179.805 8.38545 179.395 7.80077 178.84 7.35479C178.285 6.9088 177.578 6.6858 176.719 6.6858C175.86 6.6858 175.153 6.9088 174.598 7.35479C174.043 7.80077 173.632 8.38545 173.366 9.10882C173.099 9.83219 172.966 10.6127 172.966 11.4503C172.966 12.2878 173.099 13.0656 173.366 13.7835C173.632 14.5015 174.043 15.0807 174.598 15.5213C175.153 15.9618 175.86 16.1821 176.719 16.1821ZM186.739 17.7811C186.337 17.7811 185.992 17.637 185.703 17.3487C185.415 17.0605 185.271 16.7151 185.271 16.3126C185.271 15.9101 185.415 15.5648 185.703 15.2765C185.992 14.9882 186.337 14.8441 186.739 14.8441C187.142 14.8441 187.487 14.9882 187.775 15.2765C188.064 15.5648 188.208 15.9101 188.208 16.3126C188.208 16.5791 188.14 16.8239 188.004 17.0469C187.873 17.2699 187.697 17.4493 187.474 17.5853C187.256 17.7158 187.011 17.7811 186.739 17.7811ZM204.455 12.4293H206.674L208.534 14.8767L209.024 15.5294L211.798 19.217H209.579L207.751 16.7695L207.294 16.1494L204.455 12.4293ZM212.483 9.29646C212.483 11.0587 212.165 12.5815 211.528 13.8651C210.892 15.1487 210.019 16.1386 208.91 16.8347C207.8 17.5309 206.533 17.879 205.108 17.879C203.683 17.879 202.416 17.5309 201.306 16.8347C200.196 16.1386 199.324 15.1487 198.687 13.8651C198.051 12.5815 197.733 11.0587 197.733 9.29646C197.733 7.53427 198.051 6.01138 198.687 4.72781C199.324 3.44424 200.196 2.45436 201.306 1.75819C202.416 1.06201 203.683 0.713922 205.108 0.713922C206.533 0.713922 207.8 1.06201 208.91 1.75819C210.019 2.45436 210.892 3.44424 211.528 4.72781C212.165 6.01138 212.483 7.53427 212.483 9.29646ZM210.525 9.29646C210.525 7.84972 210.283 6.6287 209.799 5.63338C209.32 4.63807 208.67 3.88479 207.849 3.37353C207.033 2.86228 206.119 2.60665 205.108 2.60665C204.096 2.60665 203.18 2.86228 202.358 3.37353C201.543 3.88479 200.893 4.63807 200.409 5.63338C199.93 6.6287 199.691 7.84972 199.691 9.29646C199.691 10.7432 199.93 11.9642 200.409 12.9595C200.893 13.9549 201.543 14.7081 202.358 15.2194C203.18 15.7307 204.096 15.9863 205.108 15.9863C206.119 15.9863 207.033 15.7307 207.849 15.2194C208.67 14.7081 209.32 13.9549 209.799 12.9595C210.283 11.9642 210.525 10.7432 210.525 9.29646ZM223.521 12.5272V5.11941H225.446V17.6506H223.521V15.5294H223.391C223.097 16.1658 222.64 16.7069 222.02 17.1529C221.4 17.5935 220.617 17.8137 219.67 17.8137C218.887 17.8137 218.191 17.6424 217.582 17.2998C216.973 16.9517 216.494 16.4295 216.146 15.7334C215.798 15.0318 215.624 14.1479 215.624 13.0819V5.11941H217.549V12.9514C217.549 13.8651 217.805 14.5939 218.316 15.1378C218.833 15.6817 219.491 15.9536 220.29 15.9536C220.769 15.9536 221.256 15.8313 221.751 15.5865C222.251 15.3418 222.67 14.9665 223.007 14.4607C223.35 13.9549 223.521 13.3104 223.521 12.5272ZM232.66 17.9443C231.866 17.9443 231.146 17.7947 230.498 17.4956C229.851 17.191 229.337 16.7532 228.957 16.1821C228.576 15.6056 228.385 14.9094 228.385 14.0936C228.385 13.3756 228.527 12.7937 228.81 12.3477C229.093 11.8962 229.471 11.5427 229.944 11.2871C230.417 11.0315 230.939 10.8411 231.51 10.716C232.087 10.5855 232.666 10.4821 233.248 10.406C234.009 10.3081 234.627 10.2347 235.1 10.1857C235.578 10.1313 235.926 10.0416 236.144 9.9165C236.367 9.7914 236.479 9.57385 236.479 9.26383V9.19856C236.479 8.39361 236.258 7.76814 235.818 7.32215C235.383 6.87617 234.722 6.65317 233.835 6.65317C232.916 6.65317 232.195 6.85441 231.673 7.25689C231.151 7.65936 230.784 8.08903 230.572 8.5459L228.744 7.89323C229.071 7.13179 229.506 6.53896 230.05 6.11472C230.599 5.68505 231.197 5.38591 231.845 5.21731C232.497 5.04327 233.139 4.95624 233.77 4.95624C234.172 4.95624 234.635 5.00519 235.157 5.10309C235.684 5.19555 236.193 5.38863 236.682 5.68233C237.177 5.97603 237.588 6.4193 237.914 7.01214C238.241 7.60497 238.404 8.39905 238.404 9.39436V17.6506H236.479V15.9536H236.381C236.25 16.2256 236.033 16.5166 235.728 16.8266C235.423 17.1366 235.018 17.4004 234.512 17.6179C234.007 17.8355 233.389 17.9443 232.66 17.9443ZM232.954 16.2147C233.716 16.2147 234.357 16.0651 234.88 15.766C235.407 15.4669 235.804 15.0807 236.071 14.6075C236.343 14.1343 236.479 13.6367 236.479 13.1146V11.3524C236.397 11.4503 236.217 11.54 235.94 11.6216C235.668 11.6977 235.353 11.7657 234.994 11.8255C234.64 11.8799 234.295 11.9289 233.958 11.9724C233.626 12.0105 233.357 12.0431 233.15 12.0703C232.65 12.1356 232.182 12.2416 231.747 12.3885C231.317 12.5299 230.969 12.7447 230.702 13.033C230.441 13.3158 230.311 13.702 230.311 14.1915C230.311 14.8604 230.558 15.3662 231.053 15.7089C231.554 16.0461 232.187 16.2147 232.954 16.2147ZM243.843 0.942355V17.6506H241.918V0.942355H243.843ZM257.519 17.9443C256.725 17.9443 256.004 17.7947 255.357 17.4956C254.71 17.191 254.196 16.7532 253.815 16.1821C253.434 15.6056 253.244 14.9094 253.244 14.0936C253.244 13.3756 253.385 12.7937 253.668 12.3477C253.951 11.8962 254.329 11.5427 254.802 11.2871C255.275 11.0315 255.797 10.8411 256.369 10.716C256.945 10.5855 257.524 10.4821 258.106 10.406C258.868 10.3081 259.485 10.2347 259.958 10.1857C260.437 10.1313 260.785 10.0416 261.002 9.9165C261.225 9.7914 261.337 9.57385 261.337 9.26383V9.19856C261.337 8.39361 261.117 7.76814 260.676 7.32215C260.241 6.87617 259.58 6.65317 258.694 6.65317C257.774 6.65317 257.054 6.85441 256.532 7.25689C256.01 7.65936 255.642 8.08903 255.43 8.5459L253.603 7.89323C253.929 7.13179 254.364 6.53896 254.908 6.11472C255.457 5.68505 256.056 5.38591 256.703 5.21731C257.356 5.04327 257.997 4.95624 258.628 4.95624C259.031 4.95624 259.493 5.00519 260.015 5.10309C260.543 5.19555 261.051 5.38863 261.541 5.68233C262.036 5.97603 262.446 6.4193 262.773 7.01214C263.099 7.60497 263.262 8.39905 263.262 9.39436V17.6506H261.337V15.9536H261.239C261.108 16.2256 260.891 16.5166 260.586 16.8266C260.282 17.1366 259.877 17.4004 259.371 17.6179C258.865 17.8355 258.248 17.9443 257.519 17.9443ZM257.813 16.2147C258.574 16.2147 259.216 16.0651 259.738 15.766C260.265 15.4669 260.662 15.0807 260.929 14.6075C261.201 14.1343 261.337 13.6367 261.337 13.1146V11.3524C261.255 11.4503 261.076 11.54 260.798 11.6216C260.527 11.6977 260.211 11.7657 259.852 11.8255C259.499 11.8799 259.153 11.9289 258.816 11.9724C258.484 12.0105 258.215 12.0431 258.008 12.0703C257.508 12.1356 257.04 12.2416 256.605 12.3885C256.175 12.5299 255.827 12.7447 255.561 13.033C255.3 13.3158 255.169 13.702 255.169 14.1915C255.169 14.8604 255.417 15.3662 255.912 15.7089C256.412 16.0461 257.046 16.2147 257.813 16.2147ZM278.296 22.6108C277.366 22.6108 276.566 22.4912 275.897 22.2519C275.228 22.018 274.671 21.708 274.225 21.3218C273.784 20.9411 273.434 20.5332 273.173 20.0981L274.706 19.0212C274.88 19.2496 275.101 19.5107 275.367 19.8044C275.634 20.1035 275.998 20.3619 276.46 20.5794C276.928 20.8024 277.54 20.9139 278.296 20.9139C279.308 20.9139 280.142 20.6691 280.801 20.1796C281.459 19.6902 281.788 18.9233 281.788 17.879V15.3336H281.625C281.483 15.562 281.282 15.8449 281.021 16.1821C280.765 16.5138 280.395 16.8103 279.911 17.0713C279.433 17.327 278.785 17.4548 277.97 17.4548C276.958 17.4548 276.05 17.2155 275.245 16.7368C274.445 16.2582 273.812 15.562 273.344 14.6483C272.882 13.7346 272.65 12.6251 272.65 11.3197C272.65 10.0362 272.876 8.91846 273.328 7.96666C273.779 7.00942 274.407 6.26973 275.212 5.7476C276.017 5.22003 276.947 4.95624 278.002 4.95624C278.818 4.95624 279.465 5.09222 279.944 5.36416C280.428 5.63066 280.798 5.93524 281.054 6.27789C281.315 6.6151 281.516 6.89248 281.657 7.11004H281.853V5.11941H283.713V18.0095C283.713 19.0864 283.468 19.9621 282.979 20.6365C282.495 21.3164 281.842 21.814 281.021 22.1295C280.205 22.4504 279.297 22.6108 278.296 22.6108ZM278.231 15.7252C279.003 15.7252 279.656 15.5484 280.189 15.1949C280.722 14.8414 281.127 14.3329 281.404 13.6693C281.682 13.0058 281.82 12.2117 281.82 11.2871C281.82 10.3842 281.684 9.58744 281.412 8.89671C281.141 8.20597 280.738 7.6648 280.205 7.2732C279.672 6.8816 279.014 6.6858 278.231 6.6858C277.415 6.6858 276.735 6.89248 276.191 7.30584C275.653 7.71919 275.248 8.27396 274.976 8.97013C274.709 9.66631 274.576 10.4386 274.576 11.2871C274.576 12.1573 274.712 12.9269 274.984 13.5959C275.261 14.2594 275.669 14.7816 276.207 15.1623C276.751 15.5376 277.426 15.7252 278.231 15.7252ZM287.238 17.6506V5.11941H289.098V7.01214H289.228C289.457 6.39211 289.87 5.88901 290.468 5.50285C291.066 5.11669 291.741 4.92361 292.491 4.92361C292.633 4.92361 292.81 4.92633 293.022 4.93177C293.234 4.93721 293.394 4.94537 293.503 4.95624V6.91424C293.438 6.89792 293.288 6.87345 293.054 6.84081C292.826 6.80274 292.584 6.7837 292.328 6.7837C291.719 6.7837 291.175 6.91152 290.697 7.16715C290.223 7.41733 289.848 7.76542 289.571 8.21141C289.299 8.65196 289.163 9.15505 289.163 9.7207V17.6506H287.238ZM299.473 17.9443C298.679 17.9443 297.958 17.7947 297.311 17.4956C296.664 17.191 296.15 16.7532 295.769 16.1821C295.388 15.6056 295.198 14.9094 295.198 14.0936C295.198 13.3756 295.339 12.7937 295.622 12.3477C295.905 11.8962 296.283 11.5427 296.756 11.2871C297.229 11.0315 297.752 10.8411 298.323 10.716C298.899 10.5855 299.478 10.4821 300.06 10.406C300.822 10.3081 301.439 10.2347 301.912 10.1857C302.391 10.1313 302.739 10.0416 302.957 9.9165C303.18 9.7914 303.291 9.57385 303.291 9.26383V9.19856C303.291 8.39361 303.071 7.76814 302.63 7.32215C302.195 6.87617 301.534 6.65317 300.648 6.65317C299.729 6.65317 299.008 6.85441 298.486 7.25689C297.964 7.65936 297.597 8.08903 297.384 8.5459L295.557 7.89323C295.883 7.13179 296.318 6.53896 296.862 6.11472C297.412 5.68505 298.01 5.38591 298.657 5.21731C299.31 5.04327 299.952 4.95624 300.582 4.95624C300.985 4.95624 301.447 5.00519 301.969 5.10309C302.497 5.19555 303.005 5.38863 303.495 5.68233C303.99 5.97603 304.401 6.4193 304.727 7.01214C305.053 7.60497 305.216 8.39905 305.216 9.39436V17.6506H303.291V15.9536H303.193C303.063 16.2256 302.845 16.5166 302.54 16.8266C302.236 17.1366 301.831 17.4004 301.325 17.6179C300.819 17.8355 300.202 17.9443 299.473 17.9443ZM299.767 16.2147C300.528 16.2147 301.17 16.0651 301.692 15.766C302.22 15.4669 302.617 15.0807 302.883 14.6075C303.155 14.1343 303.291 13.6367 303.291 13.1146V11.3524C303.209 11.4503 303.03 11.54 302.753 11.6216C302.481 11.6977 302.165 11.7657 301.806 11.8255C301.453 11.8799 301.107 11.9289 300.77 11.9724C300.438 12.0105 300.169 12.0431 299.962 12.0703C299.462 12.1356 298.994 12.2416 298.559 12.3885C298.13 12.5299 297.781 12.7447 297.515 13.033C297.254 13.3158 297.123 13.702 297.123 14.1915C297.123 14.8604 297.371 15.3662 297.866 15.7089C298.366 16.0461 299 16.2147 299.767 16.2147ZM310.656 10.1123V17.6506H308.731V5.11941H310.591V7.0774H310.754C311.048 6.44106 311.494 5.9298 312.092 5.54364C312.69 5.15204 313.462 4.95624 314.409 4.95624C315.257 4.95624 316 5.13029 316.636 5.47837C317.272 5.82102 317.767 6.34316 318.121 7.04477C318.474 7.74095 318.651 8.62204 318.651 9.68806V17.6506H316.726V9.8186C316.726 8.83416 316.47 8.06728 315.959 7.51795C315.448 6.96319 314.746 6.6858 313.854 6.6858C313.239 6.6858 312.69 6.81906 312.206 7.08556C311.727 7.35207 311.349 7.74095 311.072 8.2522C310.795 8.76345 310.656 9.38349 310.656 10.1123ZM326.901 17.9116C325.857 17.9116 324.935 17.6479 324.136 17.1203C323.336 16.5873 322.711 15.8367 322.259 14.8686C321.808 13.895 321.582 12.7447 321.582 11.4176C321.582 10.1014 321.808 8.95925 322.259 7.99113C322.711 7.02302 323.339 6.27517 324.144 5.7476C324.949 5.22003 325.879 4.95624 326.934 4.95624C327.75 4.95624 328.394 5.09222 328.867 5.36416C329.346 5.63066 329.71 5.93524 329.961 6.27789C330.216 6.6151 330.415 6.89248 330.556 7.11004H330.719V0.942355H332.645V17.6506H330.785V15.7252H330.556C330.415 15.9536 330.213 16.2419 329.952 16.59C329.691 16.9326 329.319 17.2399 328.835 17.5119C328.351 17.7784 327.706 17.9116 326.901 17.9116ZM327.162 16.1821C327.935 16.1821 328.587 15.9808 329.12 15.5784C329.653 15.1704 330.058 14.6075 330.336 13.8896C330.613 13.1662 330.752 12.3314 330.752 11.385C330.752 10.4495 330.616 9.63095 330.344 8.92934C330.072 8.22229 329.67 7.67296 329.137 7.28136C328.604 6.88432 327.945 6.6858 327.162 6.6858C326.346 6.6858 325.667 6.8952 325.123 7.31399C324.584 7.72735 324.179 8.29027 323.907 9.00276C323.641 9.70982 323.507 10.5039 323.507 11.385C323.507 12.277 323.643 13.0874 323.915 13.8162C324.193 14.5395 324.601 15.1161 325.139 15.5457C325.683 15.97 326.357 16.1821 327.162 16.1821ZM341.692 17.9116C340.485 17.9116 339.443 17.6451 338.568 17.1121C337.697 16.5737 337.026 15.8231 336.552 14.8604C336.085 13.8923 335.851 12.7665 335.851 11.4829C335.851 10.1993 336.085 9.06803 336.552 8.08903C337.026 7.1046 337.684 6.33772 338.527 5.78839C339.375 5.23363 340.365 4.95624 341.496 4.95624C342.149 4.95624 342.794 5.06502 343.43 5.28258C344.066 5.50013 344.645 5.85366 345.168 6.34316C345.69 6.82722 346.106 7.469 346.416 8.26852C346.726 9.06803 346.881 10.0525 346.881 11.2218V12.0377H337.221V10.3734H344.923C344.923 9.66631 344.781 9.0354 344.499 8.48063C344.221 7.92587 343.824 7.48804 343.308 7.16715C342.796 6.84625 342.193 6.6858 341.496 6.6858C340.729 6.6858 340.066 6.87617 339.506 7.25689C338.951 7.63217 338.524 8.12167 338.225 8.72538C337.926 9.3291 337.776 9.97632 337.776 10.6671V11.7766C337.776 12.723 337.939 13.5252 338.266 14.1833C338.597 14.836 339.057 15.3336 339.644 15.6763C340.232 16.0135 340.914 16.1821 341.692 16.1821C342.198 16.1821 342.655 16.1114 343.063 15.97C343.476 15.8231 343.832 15.6056 344.132 15.3173C344.431 15.0236 344.662 14.6592 344.825 14.2241L346.685 14.7462C346.489 15.3771 346.16 15.9319 345.698 16.4105C345.236 16.8837 344.665 17.2535 343.985 17.52C343.305 17.7811 342.541 17.9116 341.692 17.9116ZM358.196 10.1123V17.6506H356.271V5.11941H358.131V7.0774H358.294C358.588 6.44106 359.034 5.9298 359.632 5.54364C360.231 5.15204 361.003 4.95624 361.949 4.95624C362.798 4.95624 363.54 5.13029 364.176 5.47837C364.813 5.82102 365.308 6.34316 365.661 7.04477C366.015 7.74095 366.192 8.62204 366.192 9.68806V17.6506H364.266V9.8186C364.266 8.83416 364.011 8.06728 363.499 7.51795C362.988 6.96319 362.286 6.6858 361.394 6.6858C360.78 6.6858 360.231 6.81906 359.747 7.08556C359.268 7.35207 358.89 7.74095 358.613 8.2522C358.335 8.76345 358.196 9.38349 358.196 10.1123ZM374.801 17.9116C373.669 17.9116 372.677 17.6424 371.823 17.104C370.974 16.5655 370.311 15.8122 369.832 14.8441C369.359 13.876 369.122 12.7447 369.122 11.4503C369.122 10.1449 369.359 9.00548 369.832 8.03193C370.311 7.05837 370.974 6.30236 371.823 5.76392C372.677 5.22547 373.669 4.95624 374.801 4.95624C375.932 4.95624 376.922 5.22547 377.77 5.76392C378.624 6.30236 379.288 7.05837 379.761 8.03193C380.24 9.00548 380.479 10.1449 380.479 11.4503C380.479 12.7447 380.24 13.876 379.761 14.8441C379.288 15.8122 378.624 16.5655 377.77 17.104C376.922 17.6424 375.932 17.9116 374.801 17.9116ZM374.801 16.1821C375.66 16.1821 376.367 15.9618 376.922 15.5213C377.477 15.0807 377.887 14.5015 378.154 13.7835C378.42 13.0656 378.553 12.2878 378.553 11.4503C378.553 10.6127 378.42 9.83219 378.154 9.10882C377.887 8.38545 377.477 7.80077 376.922 7.35479C376.367 6.9088 375.66 6.6858 374.801 6.6858C373.941 6.6858 373.234 6.9088 372.679 7.35479C372.125 7.80077 371.714 8.38545 371.448 9.10882C371.181 9.83219 371.048 10.6127 371.048 11.4503C371.048 12.2878 371.181 13.0656 371.448 13.7835C371.714 14.5015 372.125 15.0807 372.679 15.5213C373.234 15.9618 373.941 16.1821 374.801 16.1821ZM393.216 5.11941L388.582 17.6506H386.624L381.99 5.11941H384.079L387.538 15.1052H387.668L391.127 5.11941H393.216ZM395.757 17.6506V5.11941H397.683V17.6506H395.757ZM396.736 3.03088C396.361 3.03088 396.037 2.90307 395.765 2.64744C395.499 2.39181 395.366 2.08452 395.366 1.72555C395.366 1.36659 395.499 1.05929 395.765 0.803663C396.037 0.548037 396.361 0.420223 396.736 0.420223C397.112 0.420223 397.432 0.548037 397.699 0.803663C397.971 1.05929 398.107 1.36659 398.107 1.72555C398.107 2.08452 397.971 2.39181 397.699 2.64744C397.432 2.90307 397.112 3.03088 396.736 3.03088ZM405.941 17.9116C404.897 17.9116 403.975 17.6479 403.175 17.1203C402.376 16.5873 401.75 15.8367 401.299 14.8686C400.847 13.895 400.622 12.7447 400.622 11.4176C400.622 10.1014 400.847 8.95925 401.299 7.99113C401.75 7.02302 402.378 6.27517 403.183 5.7476C403.988 5.22003 404.918 4.95624 405.974 4.95624C406.789 4.95624 407.434 5.09222 407.907 5.36416C408.386 5.63066 408.75 5.93524 409 6.27789C409.256 6.6151 409.454 6.89248 409.596 7.11004H409.759V0.942355H411.684V17.6506H409.824V15.7252H409.596C409.454 15.9536 409.253 16.2419 408.992 16.59C408.731 16.9326 408.358 17.2399 407.874 17.5119C407.39 17.7784 406.746 17.9116 405.941 17.9116ZM406.202 16.1821C406.974 16.1821 407.627 15.9808 408.16 15.5784C408.693 15.1704 409.098 14.6075 409.376 13.8896C409.653 13.1662 409.792 12.3314 409.792 11.385C409.792 10.4495 409.656 9.63095 409.384 8.92934C409.112 8.22229 408.709 7.67296 408.176 7.28136C407.643 6.88432 406.985 6.6858 406.202 6.6858C405.386 6.6858 404.706 6.8952 404.162 7.31399C403.624 7.72735 403.219 8.29027 402.947 9.00276C402.68 9.70982 402.547 10.5039 402.547 11.385C402.547 12.277 402.683 13.0874 402.955 13.8162C403.232 14.5395 403.64 15.1161 404.179 15.5457C404.723 15.97 405.397 16.1821 406.202 16.1821ZM419.166 17.9443C418.371 17.9443 417.651 17.7947 417.004 17.4956C416.356 17.191 415.842 16.7532 415.462 16.1821C415.081 15.6056 414.891 14.9094 414.891 14.0936C414.891 13.3756 415.032 12.7937 415.315 12.3477C415.598 11.8962 415.976 11.5427 416.449 11.2871C416.922 11.0315 417.444 10.8411 418.015 10.716C418.592 10.5855 419.171 10.4821 419.753 10.406C420.514 10.3081 421.132 10.2347 421.605 10.1857C422.083 10.1313 422.432 10.0416 422.649 9.9165C422.872 9.7914 422.984 9.57385 422.984 9.26383V9.19856C422.984 8.39361 422.763 7.76814 422.323 7.32215C421.888 6.87617 421.227 6.65317 420.34 6.65317C419.421 6.65317 418.701 6.85441 418.178 7.25689C417.656 7.65936 417.289 8.08903 417.077 8.5459L415.25 7.89323C415.576 7.13179 416.011 6.53896 416.555 6.11472C417.104 5.68505 417.702 5.38591 418.35 5.21731C419.002 5.04327 419.644 4.95624 420.275 4.95624C420.678 4.95624 421.14 5.00519 421.662 5.10309C422.19 5.19555 422.698 5.38863 423.188 5.68233C423.683 5.97603 424.093 6.4193 424.419 7.01214C424.746 7.60497 424.909 8.39905 424.909 9.39436V17.6506H422.984V15.9536H422.886C422.755 16.2256 422.538 16.5166 422.233 16.8266C421.928 17.1366 421.523 17.4004 421.017 17.6179C420.512 17.8355 419.894 17.9443 419.166 17.9443ZM419.459 16.2147C420.221 16.2147 420.862 16.0651 421.385 15.766C421.912 15.4669 422.309 15.0807 422.576 14.6075C422.848 14.1343 422.984 13.6367 422.984 13.1146V11.3524C422.902 11.4503 422.723 11.54 422.445 11.6216C422.173 11.6977 421.858 11.7657 421.499 11.8255C421.145 11.8799 420.8 11.9289 420.463 11.9724C420.131 12.0105 419.862 12.0431 419.655 12.0703C419.155 12.1356 418.687 12.2416 418.252 12.3885C417.822 12.5299 417.474 12.7447 417.208 13.033C416.946 13.3158 416.816 13.702 416.816 14.1915C416.816 14.8604 417.063 15.3662 417.558 15.7089C418.059 16.0461 418.692 16.2147 419.459 16.2147ZM433.155 17.9116C432.111 17.9116 431.189 17.6479 430.389 17.1203C429.59 16.5873 428.964 15.8367 428.513 14.8686C428.061 13.895 427.836 12.7447 427.836 11.4176C427.836 10.1014 428.061 8.95925 428.513 7.99113C428.964 7.02302 429.593 6.27517 430.397 5.7476C431.202 5.22003 432.132 4.95624 433.188 4.95624C434.003 4.95624 434.648 5.09222 435.121 5.36416C435.6 5.63066 435.964 5.93524 436.214 6.27789C436.47 6.6151 436.669 6.89248 436.81 7.11004H436.973V0.942355H438.898V17.6506H437.038V15.7252H436.81C436.669 15.9536 436.467 16.2419 436.206 16.59C435.945 16.9326 435.573 17.2399 435.089 17.5119C434.604 17.7784 433.96 17.9116 433.155 17.9116ZM433.416 16.1821C434.188 16.1821 434.841 15.9808 435.374 15.5784C435.907 15.1704 436.312 14.6075 436.59 13.8896C436.867 13.1662 437.006 12.3314 437.006 11.385C437.006 10.4495 436.87 9.63095 436.598 8.92934C436.326 8.22229 435.923 7.67296 435.39 7.28136C434.857 6.88432 434.199 6.6858 433.416 6.6858C432.6 6.6858 431.92 6.8952 431.376 7.31399C430.838 7.72735 430.433 8.29027 430.161 9.00276C429.894 9.70982 429.761 10.5039 429.761 11.385C429.761 12.277 429.897 13.0874 430.169 13.8162C430.446 14.5395 430.854 15.1161 431.393 15.5457C431.937 15.97 432.611 16.1821 433.416 16.1821ZM447.946 17.9116C446.739 17.9116 445.697 17.6451 444.821 17.1121C443.951 16.5737 443.279 15.8231 442.806 14.8604C442.339 13.8923 442.105 12.7665 442.105 11.4829C442.105 10.1993 442.339 9.06803 442.806 8.08903C443.279 7.1046 443.938 6.33772 444.781 5.78839C445.629 5.23363 446.619 4.95624 447.75 4.95624C448.403 4.95624 449.047 5.06502 449.684 5.28258C450.32 5.50013 450.899 5.85366 451.421 6.34316C451.944 6.82722 452.36 7.469 452.67 8.26852C452.98 9.06803 453.135 10.0525 453.135 11.2218V12.0377H443.475V10.3734H451.177C451.177 9.66631 451.035 9.0354 450.752 8.48063C450.475 7.92587 450.078 7.48804 449.561 7.16715C449.05 6.84625 448.446 6.6858 447.75 6.6858C446.983 6.6858 446.32 6.87617 445.76 7.25689C445.205 7.63217 444.778 8.12167 444.479 8.72538C444.18 9.3291 444.03 9.97632 444.03 10.6671V11.7766C444.03 12.723 444.193 13.5252 444.52 14.1833C444.851 14.836 445.311 15.3336 445.898 15.6763C446.486 16.0135 447.168 16.1821 447.946 16.1821C448.452 16.1821 448.909 16.1114 449.317 15.97C449.73 15.8231 450.086 15.6056 450.385 15.3173C450.684 15.0236 450.916 14.6592 451.079 14.2241L452.939 14.7462C452.743 15.3771 452.414 15.9319 451.952 16.4105C451.489 16.8837 450.918 17.2535 450.239 17.52C449.559 17.7811 448.794 17.9116 447.946 17.9116ZM462.525 22.3498V5.11941H464.385V7.11004H464.613C464.755 6.89248 464.951 6.6151 465.201 6.27789C465.456 5.93524 465.821 5.63066 466.294 5.36416C466.773 5.09222 467.42 4.95624 468.236 4.95624C469.291 4.95624 470.221 5.22003 471.026 5.7476C471.831 6.27517 472.459 7.02302 472.91 7.99113C473.362 8.95925 473.588 10.1014 473.588 11.4176C473.588 12.7447 473.362 13.895 472.91 14.8686C472.459 15.8367 471.834 16.5873 471.034 17.1203C470.235 17.6479 469.313 17.9116 468.268 17.9116C467.463 17.9116 466.819 17.7784 466.335 17.5119C465.851 17.2399 465.478 16.9326 465.217 16.59C464.956 16.2419 464.755 15.9536 464.613 15.7252H464.45V22.3498H462.525ZM464.418 11.385C464.418 12.3314 464.556 13.1662 464.834 13.8896C465.111 14.6075 465.516 15.1704 466.049 15.5784C466.582 15.9808 467.235 16.1821 468.007 16.1821C468.812 16.1821 469.484 15.97 470.022 15.5457C470.566 15.1161 470.974 14.5395 471.246 13.8162C471.524 13.0874 471.662 12.277 471.662 11.385C471.662 10.5039 471.526 9.70982 471.254 9.00276C470.988 8.29027 470.583 7.72735 470.039 7.31399C469.5 6.8952 468.823 6.6858 468.007 6.6858C467.224 6.6858 466.566 6.88432 466.033 7.28136C465.5 7.67296 465.098 8.22229 464.826 8.92934C464.554 9.63095 464.418 10.4495 464.418 11.385ZM480.212 17.9443C479.418 17.9443 478.697 17.7947 478.05 17.4956C477.403 17.191 476.889 16.7532 476.508 16.1821C476.128 15.6056 475.937 14.9094 475.937 14.0936C475.937 13.3756 476.079 12.7937 476.361 12.3477C476.644 11.8962 477.022 11.5427 477.495 11.2871C477.969 11.0315 478.491 10.8411 479.062 10.716C479.638 10.5855 480.218 10.4821 480.8 10.406C481.561 10.3081 482.178 10.2347 482.651 10.1857C483.13 10.1313 483.478 10.0416 483.696 9.9165C483.919 9.7914 484.03 9.57385 484.03 9.26383V9.19856C484.03 8.39361 483.81 7.76814 483.369 7.32215C482.934 6.87617 482.273 6.65317 481.387 6.65317C480.468 6.65317 479.747 6.85441 479.225 7.25689C478.703 7.65936 478.336 8.08903 478.124 8.5459L476.296 7.89323C476.622 7.13179 477.058 6.53896 477.601 6.11472C478.151 5.68505 478.749 5.38591 479.396 5.21731C480.049 5.04327 480.691 4.95624 481.322 4.95624C481.724 4.95624 482.186 5.00519 482.709 5.10309C483.236 5.19555 483.745 5.38863 484.234 5.68233C484.729 5.97603 485.14 6.4193 485.466 7.01214C485.792 7.60497 485.956 8.39905 485.956 9.39436V17.6506H484.03V15.9536H483.932C483.802 16.2256 483.584 16.5166 483.28 16.8266C482.975 17.1366 482.57 17.4004 482.064 17.6179C481.558 17.8355 480.941 17.9443 480.212 17.9443ZM480.506 16.2147C481.267 16.2147 481.909 16.0651 482.431 15.766C482.959 15.4669 483.356 15.0807 483.622 14.6075C483.894 14.1343 484.03 13.6367 484.03 13.1146V11.3524C483.949 11.4503 483.769 11.54 483.492 11.6216C483.22 11.6977 482.904 11.7657 482.545 11.8255C482.192 11.8799 481.846 11.9289 481.509 11.9724C481.178 12.0105 480.908 12.0431 480.702 12.0703C480.201 12.1356 479.733 12.2416 479.298 12.3885C478.869 12.5299 478.521 12.7447 478.254 13.033C477.993 13.3158 477.863 13.702 477.863 14.1915C477.863 14.8604 478.11 15.3662 478.605 15.7089C479.105 16.0461 479.739 16.2147 480.506 16.2147ZM489.47 17.6506V5.11941H491.33V7.01214H491.46C491.689 6.39211 492.102 5.88901 492.7 5.50285C493.299 5.11669 493.973 4.92361 494.724 4.92361C494.865 4.92361 495.042 4.92633 495.254 4.93177C495.466 4.93721 495.627 4.94537 495.735 4.95624V6.91424C495.67 6.89792 495.521 6.87345 495.287 6.84081C495.058 6.80274 494.816 6.7837 494.561 6.7837C493.951 6.7837 493.408 6.91152 492.929 7.16715C492.456 7.41733 492.08 7.76542 491.803 8.21141C491.531 8.65196 491.395 9.15505 491.395 9.7207V17.6506H489.47ZM501.705 17.9443C500.911 17.9443 500.19 17.7947 499.543 17.4956C498.896 17.191 498.382 16.7532 498.001 16.1821C497.621 15.6056 497.43 14.9094 497.43 14.0936C497.43 13.3756 497.572 12.7937 497.854 12.3477C498.137 11.8962 498.515 11.5427 498.988 11.2871C499.462 11.0315 499.984 10.8411 500.555 10.716C501.131 10.5855 501.711 10.4821 502.293 10.406C503.054 10.3081 503.671 10.2347 504.145 10.1857C504.623 10.1313 504.971 10.0416 505.189 9.9165C505.412 9.7914 505.523 9.57385 505.523 9.26383V9.19856C505.523 8.39361 505.303 7.76814 504.862 7.32215C504.427 6.87617 503.767 6.65317 502.88 6.65317C501.961 6.65317 501.24 6.85441 500.718 7.25689C500.196 7.65936 499.829 8.08903 499.617 8.5459L497.789 7.89323C498.116 7.13179 498.551 6.53896 499.095 6.11472C499.644 5.68505 500.242 5.38591 500.889 5.21731C501.542 5.04327 502.184 4.95624 502.815 4.95624C503.217 4.95624 503.679 5.00519 504.202 5.10309C504.729 5.19555 505.238 5.38863 505.727 5.68233C506.222 5.97603 506.633 6.4193 506.959 7.01214C507.285 7.60497 507.449 8.39905 507.449 9.39436V17.6506H505.523V15.9536H505.425C505.295 16.2256 505.077 16.5166 504.773 16.8266C504.468 17.1366 504.063 17.4004 503.557 17.6179C503.051 17.8355 502.434 17.9443 501.705 17.9443ZM501.999 16.2147C502.76 16.2147 503.402 16.0651 503.924 15.766C504.452 15.4669 504.849 15.0807 505.115 14.6075C505.387 14.1343 505.523 13.6367 505.523 13.1146V11.3524C505.442 11.4503 505.262 11.54 504.985 11.6216C504.713 11.6977 504.397 11.7657 504.038 11.8255C503.685 11.8799 503.34 11.9289 503.002 11.9724C502.671 12.0105 502.401 12.0431 502.195 12.0703C501.694 12.1356 501.227 12.2416 500.791 12.3885C500.362 12.5299 500.014 12.7447 499.747 13.033C499.486 13.3158 499.356 13.702 499.356 14.1915C499.356 14.8604 499.603 15.3662 500.098 15.7089C500.598 16.0461 501.232 16.2147 501.999 16.2147ZM521.112 17.9443C520.318 17.9443 519.597 17.7947 518.95 17.4956C518.303 17.191 517.789 16.7532 517.408 16.1821C517.027 15.6056 516.837 14.9094 516.837 14.0936C516.837 13.3756 516.978 12.7937 517.261 12.3477C517.544 11.8962 517.922 11.5427 518.395 11.2871C518.868 11.0315 519.39 10.8411 519.961 10.716C520.538 10.5855 521.117 10.4821 521.699 10.406C522.461 10.3081 523.078 10.2347 523.551 10.1857C524.03 10.1313 524.378 10.0416 524.595 9.9165C524.818 9.7914 524.93 9.57385 524.93 9.26383V9.19856C524.93 8.39361 524.71 7.76814 524.269 7.32215C523.834 6.87617 523.173 6.65317 522.287 6.65317C521.367 6.65317 520.647 6.85441 520.125 7.25689C519.603 7.65936 519.235 8.08903 519.023 8.5459L517.196 7.89323C517.522 7.13179 517.957 6.53896 518.501 6.11472C519.05 5.68505 519.649 5.38591 520.296 5.21731C520.949 5.04327 521.59 4.95624 522.221 4.95624C522.624 4.95624 523.086 5.00519 523.608 5.10309C524.136 5.19555 524.644 5.38863 525.134 5.68233C525.629 5.97603 526.039 6.4193 526.366 7.01214C526.692 7.60497 526.855 8.39905 526.855 9.39436V17.6506H524.93V15.9536H524.832C524.701 16.2256 524.484 16.5166 524.179 16.8266C523.875 17.1366 523.47 17.4004 522.964 17.6179C522.458 17.8355 521.841 17.9443 521.112 17.9443ZM521.405 16.2147C522.167 16.2147 522.809 16.0651 523.331 15.766C523.858 15.4669 524.255 15.0807 524.522 14.6075C524.794 14.1343 524.93 13.6367 524.93 13.1146V11.3524C524.848 11.4503 524.669 11.54 524.391 11.6216C524.119 11.6977 523.804 11.7657 523.445 11.8255C523.092 11.8799 522.746 11.9289 522.409 11.9724C522.077 12.0105 521.808 12.0431 521.601 12.0703C521.101 12.1356 520.633 12.2416 520.198 12.3885C519.768 12.5299 519.42 12.7447 519.154 13.033C518.893 13.3158 518.762 13.702 518.762 14.1915C518.762 14.8604 519.01 15.3662 519.505 15.7089C520.005 16.0461 520.639 16.2147 521.405 16.2147ZM542.085 17.9116C540.877 17.9116 539.836 17.6451 538.96 17.1121C538.09 16.5737 537.418 15.8231 536.945 14.8604C536.477 13.8923 536.243 12.7665 536.243 11.4829C536.243 10.1993 536.477 9.06803 536.945 8.08903C537.418 7.1046 538.076 6.33772 538.919 5.78839C539.768 5.23363 540.758 4.95624 541.889 4.95624C542.542 4.95624 543.186 5.06502 543.822 5.28258C544.459 5.50013 545.038 5.85366 545.56 6.34316C546.082 6.82722 546.498 7.469 546.808 8.26852C547.118 9.06803 547.273 10.0525 547.273 11.2218V12.0377H537.614V10.3734H545.315C545.315 9.66631 545.174 9.0354 544.891 8.48063C544.614 7.92587 544.217 7.48804 543.7 7.16715C543.189 6.84625 542.585 6.6858 541.889 6.6858C541.122 6.6858 540.459 6.87617 539.898 7.25689C539.344 7.63217 538.917 8.12167 538.617 8.72538C538.318 9.3291 538.169 9.97632 538.169 10.6671V11.7766C538.169 12.723 538.332 13.5252 538.658 14.1833C538.99 14.836 539.45 15.3336 540.037 15.6763C540.624 16.0135 541.307 16.1821 542.085 16.1821C542.591 16.1821 543.047 16.1114 543.455 15.97C543.869 15.8231 544.225 15.6056 544.524 15.3173C544.823 15.0236 545.054 14.6592 545.218 14.2241L547.078 14.7462C546.882 15.3771 546.553 15.9319 546.09 16.4105C545.628 16.8837 545.057 17.2535 544.377 17.52C543.697 17.7811 542.933 17.9116 542.085 17.9116ZM558.752 22.3498V15.7252H558.589C558.448 15.9536 558.246 16.2419 557.985 16.59C557.724 16.9326 557.352 17.2399 556.868 17.5119C556.384 17.7784 555.739 17.9116 554.934 17.9116C553.89 17.9116 552.968 17.6479 552.168 17.1203C551.369 16.5873 550.743 15.8367 550.292 14.8686C549.841 13.895 549.615 12.7447 549.615 11.4176C549.615 10.1014 549.841 8.95925 550.292 7.99113C550.743 7.02302 551.372 6.27517 552.177 5.7476C552.982 5.22003 553.912 4.95624 554.967 4.95624C555.783 4.95624 556.427 5.09222 556.9 5.36416C557.379 5.63066 557.743 5.93524 557.993 6.27789C558.249 6.6151 558.448 6.89248 558.589 7.11004H558.817V5.11941H560.678V22.3498H558.752ZM555.195 16.1821C555.967 16.1821 556.62 15.9808 557.153 15.5784C557.686 15.1704 558.091 14.6075 558.369 13.8896C558.646 13.1662 558.785 12.3314 558.785 11.385C558.785 10.4495 558.649 9.63095 558.377 8.92934C558.105 8.22229 557.702 7.67296 557.169 7.28136C556.636 6.88432 555.978 6.6858 555.195 6.6858C554.379 6.6858 553.699 6.8952 553.156 7.31399C552.617 7.72735 552.212 8.29027 551.94 9.00276C551.673 9.70982 551.54 10.5039 551.54 11.385C551.54 12.277 551.676 13.0874 551.948 13.8162C552.226 14.5395 552.633 15.1161 553.172 15.5457C553.716 15.97 554.39 16.1821 555.195 16.1821ZM572.099 12.5272V5.11941H574.025V17.6506H572.099V15.5294H571.969C571.675 16.1658 571.218 16.7069 570.598 17.1529C569.978 17.5935 569.195 17.8137 568.248 17.8137C567.465 17.8137 566.769 17.6424 566.16 17.2998C565.551 16.9517 565.072 16.4295 564.724 15.7334C564.376 15.0318 564.202 14.1479 564.202 13.0819V5.11941H566.127V12.9514C566.127 13.8651 566.383 14.5939 566.894 15.1378C567.411 15.6817 568.069 15.9536 568.869 15.9536C569.347 15.9536 569.834 15.8313 570.329 15.5865C570.829 15.3418 571.248 14.9665 571.585 14.4607C571.928 13.9549 572.099 13.3104 572.099 12.5272ZM577.551 17.6506V5.11941H579.476V17.6506H577.551ZM578.53 3.03088C578.155 3.03088 577.831 2.90307 577.559 2.64744C577.293 2.39181 577.159 2.08452 577.159 1.72555C577.159 1.36659 577.293 1.05929 577.559 0.803663C577.831 0.548037 578.155 0.420223 578.53 0.420223C578.905 0.420223 579.226 0.548037 579.493 0.803663C579.765 1.05929 579.901 1.36659 579.901 1.72555C579.901 2.08452 579.765 2.39181 579.493 2.64744C579.226 2.90307 578.905 3.03088 578.53 3.03088ZM583.003 22.3498V5.11941H584.863V7.11004H585.091C585.233 6.89248 585.428 6.6151 585.679 6.27789C585.934 5.93524 586.299 5.63066 586.772 5.36416C587.25 5.09222 587.898 4.95624 588.714 4.95624C589.769 4.95624 590.699 5.22003 591.504 5.7476C592.309 6.27517 592.937 7.02302 593.388 7.99113C593.84 8.95925 594.065 10.1014 594.065 11.4176C594.065 12.7447 593.84 13.895 593.388 14.8686C592.937 15.8367 592.311 16.5873 591.512 17.1203C590.712 17.6479 589.79 17.9116 588.746 17.9116C587.941 17.9116 587.297 17.7784 586.813 17.5119C586.329 17.2399 585.956 16.9326 585.695 16.59C585.434 16.2419 585.233 15.9536 585.091 15.7252H584.928V22.3498H583.003ZM584.895 11.385C584.895 12.3314 585.034 13.1662 585.312 13.8896C585.589 14.6075 585.994 15.1704 586.527 15.5784C587.06 15.9808 587.713 16.1821 588.485 16.1821C589.29 16.1821 589.962 15.97 590.5 15.5457C591.044 15.1161 591.452 14.5395 591.724 13.8162C592.001 13.0874 592.14 12.277 592.14 11.385C592.14 10.5039 592.004 9.70982 591.732 9.00276C591.466 8.29027 591.06 7.72735 590.517 7.31399C589.978 6.8952 589.301 6.6858 588.485 6.6858C587.702 6.6858 587.044 6.88432 586.511 7.28136C585.978 7.67296 585.575 8.22229 585.303 8.92934C585.031 9.63095 584.895 10.4495 584.895 11.385ZM602.256 17.9116C601.049 17.9116 600.007 17.6451 599.132 17.1121C598.262 16.5737 597.59 15.8231 597.117 14.8604C596.649 13.8923 596.415 12.7665 596.415 11.4829C596.415 10.1993 596.649 9.06803 597.117 8.08903C597.59 7.1046 598.248 6.33772 599.091 5.78839C599.939 5.23363 600.929 4.95624 602.061 4.95624C602.713 4.95624 603.358 5.06502 603.994 5.28258C604.63 5.50013 605.21 5.85366 605.732 6.34316C606.254 6.82722 606.67 7.469 606.98 8.26852C607.29 9.06803 607.445 10.0525 607.445 11.2218V12.0377H597.786V10.3734H605.487C605.487 9.66631 605.346 9.0354 605.063 8.48063C604.785 7.92587 604.388 7.48804 603.872 7.16715C603.36 6.84625 602.757 6.6858 602.061 6.6858C601.294 6.6858 600.63 6.87617 600.07 7.25689C599.515 7.63217 599.088 8.12167 598.789 8.72538C598.49 9.3291 598.34 9.97632 598.34 10.6671V11.7766C598.34 12.723 598.504 13.5252 598.83 14.1833C599.162 14.836 599.621 15.3336 600.209 15.6763C600.796 16.0135 601.479 16.1821 602.256 16.1821C602.762 16.1821 603.219 16.1114 603.627 15.97C604.04 15.8231 604.397 15.6056 604.696 15.3173C604.995 15.0236 605.226 14.6592 605.389 14.2241L607.249 14.7462C607.053 15.3771 606.724 15.9319 606.262 16.4105C605.8 16.8837 605.229 17.2535 604.549 17.52C603.869 17.7811 603.105 17.9116 602.256 17.9116ZM617.096 17.6506V0.942355H622.742C624.047 0.942355 625.119 1.16535 625.956 1.61134C626.794 2.05188 627.414 2.65832 627.816 3.43064C628.219 4.20296 628.42 5.08134 628.42 6.06577C628.42 7.05021 628.219 7.92315 627.816 8.68459C627.414 9.44603 626.797 10.0443 625.964 10.4794C625.132 10.9091 624.069 11.1239 622.775 11.1239H618.206V9.29646H622.709C623.601 9.29646 624.319 9.16593 624.863 8.90486C625.412 8.6438 625.809 8.27396 626.054 7.79534C626.304 7.31128 626.429 6.73475 626.429 6.06577C626.429 5.39679 626.304 4.81211 626.054 4.31174C625.804 3.81136 625.404 3.4252 624.855 3.15326C624.306 2.87587 623.579 2.73718 622.677 2.73718H619.12V17.6506H617.096ZM624.961 10.1449L629.073 17.6506H626.723L622.677 10.1449H624.961ZM636.65 17.9116C635.442 17.9116 634.401 17.6451 633.525 17.1121C632.655 16.5737 631.983 15.8231 631.51 14.8604C631.042 13.8923 630.808 12.7665 630.808 11.4829C630.808 10.1993 631.042 9.06803 631.51 8.08903C631.983 7.1046 632.641 6.33772 633.484 5.78839C634.333 5.23363 635.323 4.95624 636.454 4.95624C637.107 4.95624 637.751 5.06502 638.387 5.28258C639.024 5.50013 639.603 5.85366 640.125 6.34316C640.647 6.82722 641.063 7.469 641.373 8.26852C641.683 9.06803 641.838 10.0525 641.838 11.2218V12.0377H632.179V10.3734H639.88C639.88 9.66631 639.739 9.0354 639.456 8.48063C639.179 7.92587 638.782 7.48804 638.265 7.16715C637.754 6.84625 637.15 6.6858 636.454 6.6858C635.687 6.6858 635.024 6.87617 634.463 7.25689C633.909 7.63217 633.482 8.12167 633.182 8.72538C632.883 9.3291 632.734 9.97632 632.734 10.6671V11.7766C632.734 12.723 632.897 13.5252 633.223 14.1833C633.555 14.836 634.015 15.3336 634.602 15.6763C635.189 16.0135 635.872 16.1821 636.65 16.1821C637.156 16.1821 637.612 16.1114 638.02 15.97C638.434 15.8231 638.79 15.6056 639.089 15.3173C639.388 15.0236 639.619 14.6592 639.783 14.2241L641.643 14.7462C641.447 15.3771 641.118 15.9319 640.655 16.4105C640.193 16.8837 639.622 17.2535 638.942 17.52C638.262 17.7811 637.498 17.9116 636.65 17.9116ZM646.693 10.1123V17.6506H644.767V5.11941H646.627V7.0774H646.791C647.084 6.44106 647.53 5.9298 648.128 5.54364C648.727 5.15204 649.499 4.95624 650.445 4.95624C651.294 4.95624 652.036 5.13029 652.673 5.47837C653.309 5.82102 653.804 6.34316 654.157 7.04477C654.511 7.74095 654.688 8.62204 654.688 9.68806V17.6506H652.762V9.8186C652.762 8.83416 652.507 8.06728 651.996 7.51795C651.484 6.96319 650.783 6.6858 649.891 6.6858C649.276 6.6858 648.727 6.81906 648.243 7.08556C647.764 7.35207 647.386 7.74095 647.109 8.2522C646.831 8.76345 646.693 9.38349 646.693 10.1123ZM663.297 17.9116C662.166 17.9116 661.173 17.6424 660.319 17.104C659.471 16.5655 658.807 15.8122 658.328 14.8441C657.855 13.876 657.619 12.7447 657.619 11.4503C657.619 10.1449 657.855 9.00548 658.328 8.03193C658.807 7.05837 659.471 6.30236 660.319 5.76392C661.173 5.22547 662.166 4.95624 663.297 4.95624C664.428 4.95624 665.418 5.22547 666.266 5.76392C667.12 6.30236 667.784 7.05837 668.257 8.03193C668.736 9.00548 668.975 10.1449 668.975 11.4503C668.975 12.7447 668.736 13.876 668.257 14.8441C667.784 15.8122 667.12 16.5655 666.266 17.104C665.418 17.6424 664.428 17.9116 663.297 17.9116ZM663.297 16.1821C664.156 16.1821 664.863 15.9618 665.418 15.5213C665.973 15.0807 666.383 14.5015 666.65 13.7835C666.916 13.0656 667.05 12.2878 667.05 11.4503C667.05 10.6127 666.916 9.83219 666.65 9.10882C666.383 8.38545 665.973 7.80077 665.418 7.35479C664.863 6.9088 664.156 6.6858 663.297 6.6858C662.437 6.6858 661.73 6.9088 661.176 7.35479C660.621 7.80077 660.21 8.38545 659.944 9.10882C659.677 9.83219 659.544 10.6127 659.544 11.4503C659.544 12.2878 659.677 13.0656 659.944 13.7835C660.21 14.5015 660.621 15.0807 661.176 15.5213C661.73 15.9618 662.437 16.1821 663.297 16.1821ZM681.712 5.11941L677.078 17.6506H675.12L670.486 5.11941H672.575L676.034 15.1052H676.165L679.624 5.11941H681.712ZM687.56 17.9443C686.766 17.9443 686.045 17.7947 685.398 17.4956C684.75 17.191 684.237 16.7532 683.856 16.1821C683.475 15.6056 683.285 14.9094 683.285 14.0936C683.285 13.3756 683.426 12.7937 683.709 12.3477C683.992 11.8962 684.37 11.5427 684.843 11.2871C685.316 11.0315 685.838 10.8411 686.409 10.716C686.986 10.5855 687.565 10.4821 688.147 10.406C688.909 10.3081 689.526 10.2347 689.999 10.1857C690.478 10.1313 690.826 10.0416 691.043 9.9165C691.266 9.7914 691.378 9.57385 691.378 9.26383V9.19856C691.378 8.39361 691.157 7.76814 690.717 7.32215C690.282 6.87617 689.621 6.65317 688.734 6.65317C687.815 6.65317 687.095 6.85441 686.573 7.25689C686.05 7.65936 685.683 8.08903 685.471 8.5459L683.644 7.89323C683.97 7.13179 684.405 6.53896 684.949 6.11472C685.498 5.68505 686.097 5.38591 686.744 5.21731C687.397 5.04327 688.038 4.95624 688.669 4.95624C689.072 4.95624 689.534 5.00519 690.056 5.10309C690.584 5.19555 691.092 5.38863 691.582 5.68233C692.077 5.97603 692.487 6.4193 692.814 7.01214C693.14 7.60497 693.303 8.39905 693.303 9.39436V17.6506H691.378V15.9536H691.28C691.149 16.2256 690.932 16.5166 690.627 16.8266C690.323 17.1366 689.917 17.4004 689.412 17.6179C688.906 17.8355 688.288 17.9443 687.56 17.9443ZM687.853 16.2147C688.615 16.2147 689.257 16.0651 689.779 15.766C690.306 15.4669 690.703 15.0807 690.97 14.6075C691.242 14.1343 691.378 13.6367 691.378 13.1146V11.3524C691.296 11.4503 691.117 11.54 690.839 11.6216C690.567 11.6977 690.252 11.7657 689.893 11.8255C689.539 11.8799 689.194 11.9289 688.857 11.9724C688.525 12.0105 688.256 12.0431 688.049 12.0703C687.549 12.1356 687.081 12.2416 686.646 12.3885C686.216 12.5299 685.868 12.7447 685.602 13.033C685.341 13.3158 685.21 13.702 685.21 14.1915C685.21 14.8604 685.458 15.3662 685.952 15.7089C686.453 16.0461 687.086 16.2147 687.853 16.2147ZM708.728 5.11941V6.75107H702.234V5.11941H708.728ZM704.127 2.11715H706.052V14.0609C706.052 14.6048 706.131 15.0127 706.289 15.2847C706.452 15.5512 706.659 15.7307 706.909 15.8231C707.165 15.9101 707.434 15.9536 707.717 15.9536C707.929 15.9536 708.103 15.9428 708.239 15.921C708.375 15.8938 708.484 15.8721 708.565 15.8557L708.957 17.5853C708.826 17.6343 708.644 17.6832 708.41 17.7322C708.176 17.7865 707.88 17.8137 707.521 17.8137C706.977 17.8137 706.444 17.6968 705.922 17.4629C705.405 17.2291 704.976 16.8728 704.633 16.3942C704.296 15.9156 704.127 15.3119 704.127 14.583V2.11715ZM716.744 17.9116C715.537 17.9116 714.495 17.6451 713.619 17.1121C712.749 16.5737 712.077 15.8231 711.604 14.8604C711.137 13.8923 710.903 12.7665 710.903 11.4829C710.903 10.1993 711.137 9.06803 711.604 8.08903C712.077 7.1046 712.736 6.33772 713.579 5.78839C714.427 5.23363 715.417 4.95624 716.548 4.95624C717.201 4.95624 717.845 5.06502 718.482 5.28258C719.118 5.50013 719.697 5.85366 720.219 6.34316C720.742 6.82722 721.158 7.469 721.468 8.26852C721.778 9.06803 721.933 10.0525 721.933 11.2218V12.0377H712.273V10.3734H719.975C719.975 9.66631 719.833 9.0354 719.55 8.48063C719.273 7.92587 718.876 7.48804 718.359 7.16715C717.848 6.84625 717.244 6.6858 716.548 6.6858C715.781 6.6858 715.118 6.87617 714.558 7.25689C714.003 7.63217 713.576 8.12167 713.277 8.72538C712.978 9.3291 712.828 9.97632 712.828 10.6671V11.7766C712.828 12.723 712.991 13.5252 713.318 14.1833C713.649 14.836 714.109 15.3336 714.696 15.6763C715.284 16.0135 715.966 16.1821 716.744 16.1821C717.25 16.1821 717.707 16.1114 718.115 15.97C718.528 15.8231 718.884 15.6056 719.183 15.3173C719.482 15.0236 719.714 14.6592 719.877 14.2241L721.737 14.7462C721.541 15.3771 721.212 15.9319 720.75 16.4105C720.287 16.8837 719.716 17.2535 719.036 17.52C718.357 17.7811 717.592 17.9116 716.744 17.9116ZM724.861 17.6506V5.11941H726.722V7.0774H726.885C727.146 6.40842 727.567 5.88901 728.149 5.51917C728.731 5.14388 729.43 4.95624 730.246 4.95624C731.073 4.95624 731.761 5.14388 732.31 5.51917C732.865 5.88901 733.297 6.40842 733.607 7.0774H733.738C734.059 6.43018 734.54 5.9162 735.182 5.53548C735.824 5.14932 736.593 4.95624 737.491 4.95624C738.611 4.95624 739.527 5.30705 740.24 6.00866C740.952 6.70484 741.309 7.7899 741.309 9.26383V17.6506H739.383V9.26383C739.383 8.33922 739.13 7.6784 738.625 7.28136C738.119 6.88432 737.523 6.6858 736.838 6.6858C735.957 6.6858 735.274 6.95231 734.79 7.48532C734.306 8.01289 734.064 8.68187 734.064 9.49226V17.6506H732.106V9.06803C732.106 8.35554 731.875 7.78174 731.413 7.34663C730.95 6.90608 730.355 6.6858 729.626 6.6858C729.126 6.6858 728.658 6.81906 728.223 7.08556C727.793 7.35207 727.445 7.72191 727.178 8.19509C726.917 8.66284 726.787 9.204 726.787 9.8186V17.6506H724.861ZM749.92 17.9116C748.788 17.9116 747.796 17.6424 746.942 17.104C746.094 16.5655 745.43 15.8122 744.951 14.8441C744.478 13.876 744.242 12.7447 744.242 11.4503C744.242 10.1449 744.478 9.00548 744.951 8.03193C745.43 7.05837 746.094 6.30236 746.942 5.76392C747.796 5.22547 748.788 4.95624 749.92 4.95624C751.051 4.95624 752.041 5.22547 752.889 5.76392C753.743 6.30236 754.407 7.05837 754.88 8.03193C755.359 9.00548 755.598 10.1449 755.598 11.4503C755.598 12.7447 755.359 13.876 754.88 14.8441C754.407 15.8122 753.743 16.5655 752.889 17.104C752.041 17.6424 751.051 17.9116 749.92 17.9116ZM749.92 16.1821C750.779 16.1821 751.486 15.9618 752.041 15.5213C752.596 15.0807 753.006 14.5015 753.273 13.7835C753.539 13.0656 753.673 12.2878 753.673 11.4503C753.673 10.6127 753.539 9.83219 753.273 9.10882C753.006 8.38545 752.596 7.80077 752.041 7.35479C751.486 6.9088 750.779 6.6858 749.92 6.6858C749.06 6.6858 748.353 6.9088 747.799 7.35479C747.244 7.80077 746.833 8.38545 746.567 9.10882C746.3 9.83219 746.167 10.6127 746.167 11.4503C746.167 12.2878 746.3 13.0656 746.567 13.7835C746.833 14.5015 747.244 15.0807 747.799 15.5213C748.353 15.9618 749.06 16.1821 749.92 16.1821ZM767.413 7.92587L765.684 8.41537C765.575 8.12711 765.414 7.847 765.202 7.57506C764.996 7.29768 764.713 7.06925 764.354 6.88976C763.995 6.71028 763.535 6.62054 762.975 6.62054C762.208 6.62054 761.569 6.7973 761.058 7.15083C760.552 7.49892 760.299 7.94218 760.299 8.48063C760.299 8.95925 760.473 9.33726 760.821 9.61464C761.169 9.89202 761.713 10.1232 762.453 10.3081L764.313 10.765C765.433 11.0369 766.268 11.453 766.818 12.0132C767.367 12.5679 767.642 13.2832 767.642 14.1588C767.642 14.8767 767.435 15.5185 767.022 16.0842C766.614 16.6498 766.043 17.0958 765.308 17.4221C764.574 17.7485 763.72 17.9116 762.747 17.9116C761.468 17.9116 760.411 17.6343 759.573 17.0795C758.735 16.5247 758.205 15.7143 757.982 14.6483L759.81 14.1915C759.984 14.8659 760.313 15.3717 760.797 15.7089C761.286 16.0461 761.925 16.2147 762.714 16.2147C763.611 16.2147 764.324 16.0244 764.851 15.6436C765.384 15.2575 765.651 14.7952 765.651 14.2567C765.651 13.8216 765.499 13.4572 765.194 13.1635C764.89 12.8644 764.422 12.6414 763.791 12.4945L761.702 12.005C760.555 11.7331 759.712 11.3116 759.173 10.7405C758.64 10.164 758.374 9.44331 758.374 8.57853C758.374 7.87148 758.572 7.24601 758.969 6.70212C759.372 6.15823 759.918 5.73128 760.609 5.42127C761.305 5.11125 762.094 4.95624 762.975 4.95624C764.215 4.95624 765.189 5.22819 765.896 5.77207C766.608 6.31596 767.114 7.03389 767.413 7.92587ZM778.927 10.1123V17.6506H777.001V0.942355H778.927V7.0774H779.09C779.383 6.43018 779.824 5.9162 780.411 5.53548C781.004 5.14932 781.793 4.95624 782.777 4.95624C783.631 4.95624 784.379 5.12757 785.021 5.47022C785.663 5.80743 786.16 6.32684 786.514 7.02845C786.873 7.72463 787.052 8.61117 787.052 9.68806V17.6506H785.127V9.8186C785.127 8.82328 784.869 8.05368 784.352 7.50979C783.841 6.96047 783.131 6.6858 782.223 6.6858C781.592 6.6858 781.026 6.81906 780.526 7.08556C780.031 7.35207 779.639 7.74095 779.351 8.2522C779.068 8.76345 778.927 9.38349 778.927 10.1123ZM795.665 17.9116C794.534 17.9116 793.542 17.6424 792.688 17.104C791.839 16.5655 791.176 15.8122 790.697 14.8441C790.224 13.876 789.987 12.7447 789.987 11.4503C789.987 10.1449 790.224 9.00548 790.697 8.03193C791.176 7.05837 791.839 6.30236 792.688 5.76392C793.542 5.22547 794.534 4.95624 795.665 4.95624C796.797 4.95624 797.787 5.22547 798.635 5.76392C799.489 6.30236 800.152 7.05837 800.626 8.03193C801.104 9.00548 801.344 10.1449 801.344 11.4503C801.344 12.7447 801.104 13.876 800.626 14.8441C800.152 15.8122 799.489 16.5655 798.635 17.104C797.787 17.6424 796.797 17.9116 795.665 17.9116ZM795.665 16.1821C796.525 16.1821 797.232 15.9618 797.787 15.5213C798.341 15.0807 798.752 14.5015 799.018 13.7835C799.285 13.0656 799.418 12.2878 799.418 11.4503C799.418 10.6127 799.285 9.83219 799.018 9.10882C798.752 8.38545 798.341 7.80077 797.787 7.35479C797.232 6.9088 796.525 6.6858 795.665 6.6858C794.806 6.6858 794.099 6.9088 793.544 7.35479C792.989 7.80077 792.579 8.38545 792.312 9.10882C792.046 9.83219 791.913 10.6127 791.913 11.4503C791.913 12.2878 792.046 13.0656 792.312 13.7835C792.579 14.5015 792.989 15.0807 793.544 15.5213C794.099 15.9618 794.806 16.1821 795.665 16.1821ZM804.283 5.11941H806.208V18.5643C806.208 19.3366 806.075 20.0056 805.808 20.5712C805.547 21.1369 805.15 21.5747 804.617 21.8847C804.09 22.1948 803.423 22.3498 802.618 22.3498C802.553 22.3498 802.488 22.3498 802.423 22.3498C802.357 22.3498 802.292 22.3498 802.227 22.3498V20.5549C802.292 20.5549 802.352 20.5549 802.406 20.5549C802.461 20.5549 802.52 20.5549 802.586 20.5549C803.173 20.5549 803.603 20.3809 803.875 20.0328C804.147 19.6902 804.283 19.2007 804.283 18.5643V5.11941ZM805.229 3.03088C804.854 3.03088 804.53 2.90307 804.258 2.64744C803.992 2.39181 803.858 2.08452 803.858 1.72555C803.858 1.36659 803.992 1.05929 804.258 0.803663C804.53 0.548037 804.854 0.420223 805.229 0.420223C805.604 0.420223 805.925 0.548037 806.192 0.803663C806.464 1.05929 806.6 1.36659 806.6 1.72555C806.6 2.08452 806.464 2.39181 806.192 2.64744C805.925 2.90307 805.604 3.03088 805.229 3.03088ZM814.988 17.9116C813.781 17.9116 812.739 17.6451 811.864 17.1121C810.994 16.5737 810.322 15.8231 809.849 14.8604C809.381 13.8923 809.147 12.7665 809.147 11.4829C809.147 10.1993 809.381 9.06803 809.849 8.08903C810.322 7.1046 810.98 6.33772 811.823 5.78839C812.671 5.23363 813.661 4.95624 814.793 4.95624C815.445 4.95624 816.09 5.06502 816.726 5.28258C817.362 5.50013 817.942 5.85366 818.464 6.34316C818.986 6.82722 819.402 7.469 819.712 8.26852C820.022 9.06803 820.177 10.0525 820.177 11.2218V12.0377H810.518V10.3734H818.219C818.219 9.66631 818.078 9.0354 817.795 8.48063C817.517 7.92587 817.12 7.48804 816.604 7.16715C816.092 6.84625 815.489 6.6858 814.793 6.6858C814.026 6.6858 813.362 6.87617 812.802 7.25689C812.247 7.63217 811.82 8.12167 811.521 8.72538C811.222 9.3291 811.072 9.97632 811.072 10.6671V11.7766C811.072 12.723 811.236 13.5252 811.562 14.1833C811.894 14.836 812.353 15.3336 812.941 15.6763C813.528 16.0135 814.211 16.1821 814.988 16.1821C815.494 16.1821 815.951 16.1114 816.359 15.97C816.772 15.8231 817.129 15.6056 817.428 15.3173C817.727 15.0236 817.958 14.6592 818.121 14.2241L819.981 14.7462C819.785 15.3771 819.456 15.9319 818.994 16.4105C818.532 16.8837 817.961 17.2535 817.281 17.52C816.601 17.7811 815.837 17.9116 814.988 17.9116ZM825.619 12.9514V12.8535C825.63 11.8147 825.738 10.988 825.945 10.3734C826.152 9.75877 826.445 9.26111 826.826 8.88039C827.207 8.49967 827.664 8.14886 828.197 7.82797C828.518 7.63217 828.806 7.40102 829.061 7.13451C829.317 6.86257 829.518 6.54983 829.665 6.19631C829.817 5.84278 829.894 5.45118 829.894 5.02151C829.894 4.4885 829.769 4.0262 829.518 3.6346C829.268 3.243 828.934 2.94114 828.515 2.72902C828.096 2.51691 827.631 2.41085 827.12 2.41085C826.674 2.41085 826.244 2.50331 825.831 2.68823C825.417 2.87315 825.072 3.16413 824.795 3.56117C824.517 3.95821 824.357 4.47762 824.313 5.11941H822.257C822.301 4.1948 822.54 3.40344 822.975 2.74534C823.416 2.08724 823.995 1.58414 824.713 1.23605C825.436 0.887966 826.239 0.713922 827.12 0.713922C828.077 0.713922 828.909 0.904282 829.616 1.285C830.329 1.66572 830.878 2.18786 831.264 2.8514C831.656 3.51494 831.852 4.27094 831.852 5.11941C831.852 5.71769 831.759 6.25885 831.574 6.74291C831.395 7.22697 831.134 7.65936 830.791 8.04008C830.454 8.42081 830.046 8.75802 829.567 9.05171C829.089 9.35085 828.705 9.66631 828.417 9.99808C828.129 10.3244 827.919 10.7133 827.789 11.1647C827.658 11.6161 827.588 12.1791 827.577 12.8535V12.9514H825.619ZM826.663 17.7811C826.26 17.7811 825.915 17.637 825.627 17.3487C825.339 17.0605 825.194 16.7151 825.194 16.3126C825.194 15.9101 825.339 15.5648 825.627 15.2765C825.915 14.9882 826.26 14.8441 826.663 14.8441C827.065 14.8441 827.411 14.9882 827.699 15.2765C827.987 15.5648 828.131 15.9101 828.131 16.3126C828.131 16.5791 828.063 16.8239 827.927 17.0469C827.797 17.2699 827.62 17.4493 827.397 17.5853C827.18 17.7158 826.935 17.7811 826.663 17.7811Z" fill="#17092E"/>
</svg>
