<svg width="1920" height="1080" viewBox="0 0 1920 1080" fill="none" xmlns="http://www.w3.org/2000/svg">
<g clip-path="url(#clip0_0_3)">
<rect width="1920" height="1080" fill="white"/>
<rect x="-26" y="73" width="1920" height="1010" fill="white"/>
<path d="M2891.97 1134.89C2727.46 845.855 2555.2 561.142 2386.52 274.342C2061.54 -277.783 1738.05 -830.803 1410.99 -1381.73C1287.05 -1590.38 1072.73 -1666.6 860.352 -1587.25C636.34 -1503.58 526.571 -1290.46 591.001 -1049.3C591.896 -1045.72 592.94 -1042.14 593.834 -1038.56L1656.77 785.751C1801.14 1030.94 1945.96 1275.83 2092.27 1519.98C2139.1 1598.13 2206.06 1674.49 2281.98 1723.56C2446.48 1829.75 2676.31 1792.31 2819.04 1654.8C2960.27 1518.79 2993.98 1314.61 2891.67 1134.89H2891.97Z" fill="#2D194B"/>
<path d="M1412.76 1238.41C1394.86 1172.19 1366.97 1109.1 1330.58 1050.93L902.54 365.476C899.258 362.195 896.276 358.615 893.74 354.887C799.631 215.438 717.901 67.7877 627.819 -74.6432C507.611 -264.501 305.821 -341.608 105.821 -278.222C-101.635 -212.451 -219.01 -32.7343 -204.544 197.691C-198.429 295.826 -191.419 394.111 -184.857 492.247C-184.559 492.247 -184.26 492.247 -183.962 492.247C-176.952 606.788 -169.644 721.329 -163.082 836.02C-154.432 989.785 -177.996 1007.68 -331.016 965.177C-528.332 910.292 -724.752 979.345 -831.538 1141.16C-929.972 1290.46 -917.742 1512.68 -803.648 1647.8C-680.904 1793.07 -472.105 1844.97 -296.863 1773.98C-115.207 1700.3 -10.5096 1523.12 -27.6609 1319.84C-40.7855 1164.58 -57.6385 1009.47 -62.1127 854.066C-62.2619 848.249 -62.1128 842.582 -61.3671 836.765C-51.822 755.632 53.1743 720.434 105.523 783.372C108.059 786.504 110.445 789.636 112.533 793.067C279.87 1056.6 437.663 1326.1 603.509 1590.53C728.043 1788.89 958.915 1858.39 1165.18 1768.01C1376.22 1675.54 1474.65 1467.19 1413.05 1239.6C1413.05 1239.3 1412.9 1238.85 1412.76 1238.55V1238.41Z" fill="#17092E"/>
<g filter="url(#filter0_f_0_3)">
<ellipse cx="927" cy="373.5" rx="416" ry="393.5" fill="#685BBC" fill-opacity="0.23"/>
</g>
</g>
<defs>
<filter id="filter0_f_0_3" x="348" y="-183" width="1158" height="1113" filterUnits="userSpaceOnUse" color-interpolation-filters="sRGB">
<feFlood flood-opacity="0" result="BackgroundImageFix"/>
<feBlend mode="normal" in="SourceGraphic" in2="BackgroundImageFix" result="shape"/>
<feGaussianBlur stdDeviation="81.5" result="effect1_foregroundBlur_0_3"/>
</filter>
<clipPath id="clip0_0_3">
<rect width="1920" height="1080" fill="white"/>
</clipPath>
</defs>
</svg>
