<?xml version="1.0" encoding="utf-8"?>
<!-- Generator: Adobe Illustrator 27.9.0, SVG Export Plug-In . SVG Version: 6.00 Build 0)  -->
<svg version="1.1" id="Camada_1" xmlns="http://www.w3.org/2000/svg" xmlns:xlink="http://www.w3.org/1999/xlink" x="0px" y="0px"
	 viewBox="0 0 1080 1920" style="enable-background:new 0 0 1080 1920;" xml:space="preserve">
<style type="text/css">
	.st0{fill:#17092E;}
	.st1{clip-path:url(#SVGID_00000086659419558447497820000001202410813462652299_);fill:#341F54;}
	.st2{fill:none;}
	.st3{fill:#E9D198;}
	.st4{fill:#C67538;}
	.st5{fill:none;stroke:#E9D198;stroke-width:0.7002;stroke-miterlimit:10;}
</style>
<path class="st0" d="M0,0v1920h1080V0H0z M540,1452.5L540,1452.5c-200.06,0-362.24-162.18-362.24-362.24V829.74
	c0-200.06,162.18-362.24,362.24-362.24h0c200.06,0,362.24,162.18,362.24,362.24v260.52C902.24,1290.32,740.06,1452.5,540,1452.5z"/>
<g>
	<defs>
		<path id="SVGID_1_" d="M0,0v1920h1080V0H0z M540,1452.5L540,1452.5c-200.06,0-362.24-162.18-362.24-362.24V829.74
			c0-200.06,162.18-362.24,362.24-362.24h0c200.06,0,362.24,162.18,362.24,362.24v260.52C902.24,1290.32,740.06,1452.5,540,1452.5z"
			/>
	</defs>
	<clipPath id="SVGID_00000050625721730940092360000000022632261146602687_">
		<use xlink:href="#SVGID_1_"  style="overflow:visible;"/>
	</clipPath>
	<path style="clip-path:url(#SVGID_00000050625721730940092360000000022632261146602687_);fill:#341F54;" d="M2681.6,4183.63
		c-26.37-369.99-40.19-741.2-77.97-1109.98c-64.63-630.88-133.98-1261.61-219.79-1889.89C2307.42,624.27,2190.2,71.99,1968.42-451.8
		c-124.47-293.97-289.97-559.2-544.66-762c-237.41-189.04-515.47-276.94-807.71-319.31c-384.04-55.68-770.81-67.99-1151.54,25
		c-594.07,145.1-915.89,542.54-1026.15,1129.37c-166.51,886.21,179.47,1583.14,992.59,1998.01
		c62.3,31.79,125.09,62.62,200.15,100.14c-184.39,469.79-473.24,831.68-927.04,1035.65c-180.85,81.29-247.24,203.42-252.62,388.03
		c-7.83,268.32,39.52,525.19,143.34,771.08c81.78,193.71,204.87,246.12,403.24,176.33c627.24-220.68,1092.82-631.68,1415.6-1208.31
		c244.51-436.82,379.46-910.03,454.39-1401.4c11.47-75.22,6.38-146.27-13.1-211.37C792.55,1378.77,674.89,1452.5,540,1452.5h0
		c-200.06,0-362.24-162.18-362.24-362.24V829.74c0-16.24,1.07-32.22,3.14-47.89C93.21,739.36,7.09,694.18-75.85,644.01
		C-354.36,475.55-432.5,220.08-330.98-87.21C-277.1-250.3-160.4-346.94,4.86-378.85C337.08-443,641.37-300.06,803.96-3.15
		c175.83,321.08,258.04,673.91,301.35,1031.2c88.38,728.97,159.83,1460.05,231.95,2190.88c29.14,295.29,42.92,592.14,61.14,888.43
		c4.49,72.96,31.89,113.62,107.36,131.36c353.24,83.03,709.13,121.96,1071.68,82.82C2664.13,4312.18,2687.26,4263.07,2681.6,4183.63
		z"/>
</g>
<g>
	<rect class="st2" width="1080" height="1920"/>
	<g>
		<defs>
			<rect id="SVGID_00000097485916612655484660000012330267330926067085_" width="1080" height="1920"/>
		</defs>
		<clipPath id="SVGID_00000021821795294460962050000011705154093777008814_">
			<use xlink:href="#SVGID_00000097485916612655484660000012330267330926067085_"  style="overflow:visible;"/>
		</clipPath>
	</g>
</g>
<g>
	<g>
		<path class="st3" d="M619.72,1768.67h1.91l-1.77,11.03h12.66l1.77-11.03h1.91l-3.93,24.35h-1.91l1.88-11.55h-12.66l-1.88,11.55
			h-1.91L619.72,1768.67z"/>
		<path class="st3" d="M644.07,1793.37c-1.69,0-3.05-0.63-4.07-1.9c-1.02-1.26-1.53-2.95-1.53-5.06c0-2.09,0.44-4.03,1.32-5.83
			c0.88-1.8,2.01-3.21,3.38-4.23c1.37-1.02,2.81-1.53,4.31-1.53c1.69,0,3.05,0.63,4.07,1.9c1.02,1.26,1.53,2.95,1.53,5.06
			c0,2.09-0.44,4.03-1.32,5.83c-0.88,1.8-2.01,3.21-3.38,4.23C647.02,1792.86,645.58,1793.37,644.07,1793.37z M644.49,1791.77
			c1.18,0,2.3-0.49,3.34-1.46c1.04-0.97,1.86-2.2,2.45-3.67s0.89-2.99,0.89-4.54c0-1.76-0.37-3.15-1.1-4.16s-1.73-1.51-3.01-1.51
			c-1.18,0-2.3,0.49-3.34,1.46c-1.04,0.97-1.86,2.2-2.45,3.67c-0.59,1.47-0.89,2.99-0.89,4.54c0,1.76,0.37,3.15,1.1,4.16
			S643.22,1791.77,644.49,1791.77z"/>
		<path class="st3" d="M649.64,1798.87c0.63,0.37,1.3,0.56,2.02,0.56c0.81,0,1.48-0.24,2-0.71c0.52-0.48,0.99-1.35,1.39-2.61
			c0.41-1.26,0.85-3.25,1.34-5.97l2.68-14.89l1.81-0.14l-3.03,16.94c-0.4,2.16-0.85,3.88-1.38,5.18c-0.52,1.3-1.15,2.25-1.9,2.87
			c-0.74,0.61-1.66,0.92-2.75,0.92c-0.95,0-1.86-0.26-2.71-0.77L649.64,1798.87z M659.28,1768.63c0-0.46,0.17-0.86,0.5-1.2
			c0.34-0.34,0.74-0.5,1.2-0.5c0.44,0,0.8,0.13,1.08,0.38s0.42,0.59,0.42,1.01c0,0.46-0.17,0.86-0.5,1.2s-0.74,0.5-1.2,0.5
			c-0.44,0-0.8-0.13-1.08-0.38S659.28,1769.05,659.28,1768.63z"/>
		<path class="st3" d="M677.44,1778.72c0,2.04-1.01,3.65-3.04,4.82c-2.03,1.17-4.97,1.84-8.82,2c-0.05,0.51-0.07,0.99-0.07,1.43
			c0,1.58,0.31,2.77,0.94,3.58c0.63,0.81,1.54,1.22,2.75,1.22c0.93,0,1.88-0.18,2.85-0.56c0.97-0.37,1.92-0.92,2.85-1.63l0.59,1.36
			c-1,0.79-2.06,1.39-3.2,1.81c-1.14,0.42-2.29,0.63-3.44,0.63c-1.67,0-2.96-0.54-3.88-1.62c-0.92-1.08-1.37-2.59-1.37-4.54
			c0-2.23,0.46-4.3,1.39-6.23c0.93-1.93,2.11-3.43,3.55-4.52c1.44-1.09,2.95-1.63,4.52-1.63c1.3,0,2.35,0.37,3.17,1.1
			S677.44,1777.58,677.44,1778.72z M673.02,1776.39c-1.65,0-3.15,0.73-4.51,2.17c-1.36,1.45-2.27,3.31-2.73,5.58
			c3.11-0.14,5.51-0.67,7.22-1.6s2.56-2.17,2.56-3.72c0-0.74-0.22-1.33-0.66-1.77S673.83,1776.39,673.02,1776.39z"/>
		<path class="st3" d="M701.48,1778.72c0,2.04-1.01,3.65-3.04,4.82c-2.03,1.17-4.97,1.84-8.82,2c-0.05,0.51-0.07,0.99-0.07,1.43
			c0,1.58,0.31,2.77,0.94,3.58c0.63,0.81,1.54,1.22,2.75,1.22c0.93,0,1.88-0.18,2.85-0.56c0.97-0.37,1.92-0.92,2.85-1.63l0.59,1.36
			c-1,0.79-2.06,1.39-3.2,1.81c-1.14,0.42-2.29,0.63-3.44,0.63c-1.67,0-2.96-0.54-3.88-1.62c-0.92-1.08-1.37-2.59-1.37-4.54
			c0-2.23,0.46-4.3,1.39-6.23c0.93-1.93,2.11-3.43,3.55-4.52c1.44-1.09,2.95-1.63,4.52-1.63c1.3,0,2.35,0.37,3.17,1.1
			S701.48,1777.58,701.48,1778.72z M697.06,1776.39c-1.65,0-3.15,0.73-4.51,2.17c-1.36,1.45-2.27,3.31-2.73,5.58
			c3.11-0.14,5.51-0.67,7.22-1.6s2.56-2.17,2.56-3.72c0-0.74-0.22-1.33-0.66-1.77S697.87,1776.39,697.06,1776.39z M696.05,1771.59
			l5.11-5.6l1.39,1.74c-1.46,1.37-3.38,3-5.74,4.91L696.05,1771.59z"/>
		<path class="st3" d="M722.87,1793.09c-0.05-0.56-0.07-1.07-0.07-1.53c0-2.06,0.29-4.46,0.87-7.2c-1.25,2.88-2.6,5.1-4.05,6.66
			c-1.45,1.57-2.89,2.35-4.33,2.35c-1.14,0-2.02-0.51-2.66-1.53c-0.64-1.02-0.96-2.44-0.96-4.25c0-2.43,0.43-4.63,1.29-6.59
			c0.86-1.96,1.98-3.48,3.38-4.56c1.39-1.08,2.9-1.62,4.52-1.62c1.65,0,3.06,0.63,4.25,1.88l2.16-9.88l1.81-0.14l-3.27,14.96
			c-0.44,2.04-0.75,3.78-0.92,5.2c-0.17,1.43-0.26,2.94-0.26,4.54c0,0.51,0.02,1,0.07,1.46L722.87,1793.09z M715.88,1791.7
			c0.9,0,1.95-0.66,3.15-1.98c1.19-1.32,2.29-2.98,3.29-4.98c1-1.99,1.8-4.12,2.4-6.37c-0.46-0.6-1.03-1.08-1.69-1.43
			s-1.35-0.52-2.07-0.52c-1.46,0-2.75,0.49-3.86,1.46c-1.11,0.97-1.98,2.29-2.59,3.95c-0.62,1.66-0.92,3.51-0.92,5.55
			C713.58,1790.26,714.35,1791.7,715.88,1791.7z"/>
		<path class="st3" d="M732.79,1775.24l1.81-0.14l-3.2,17.92h-1.81L732.79,1775.24z M733,1768.63c0-0.46,0.17-0.86,0.5-1.2
			c0.34-0.34,0.74-0.5,1.2-0.5c0.44,0,0.8,0.13,1.08,0.38s0.42,0.59,0.42,1.01c0,0.46-0.17,0.86-0.5,1.2s-0.74,0.5-1.2,0.5
			c-0.44,0-0.8-0.13-1.08-0.38S733,1769.05,733,1768.63z"/>
		<path class="st3" d="M740.82,1793.37c-1.09,0-1.95-0.52-2.57-1.55s-0.94-2.44-0.94-4.23c0-2.41,0.42-4.6,1.27-6.58
			c0.85-1.97,1.96-3.5,3.34-4.58c1.38-1.08,2.87-1.62,4.47-1.62c0.86,0,1.67,0.18,2.44,0.54c0.77,0.36,1.44,0.88,2.02,1.55
			l0.63-1.81l1.57,0.28c-2,5.84-2.99,11.18-2.99,16c0,0.51,0.02,1,0.07,1.46l-1.81,0.24c-0.05-0.56-0.07-1.07-0.07-1.53
			c0-2.06,0.29-4.46,0.87-7.2c-1.25,2.85-2.6,5.07-4.04,6.65C743.63,1792.58,742.22,1793.37,740.82,1793.37z M741.42,1791.7
			c0.6,0,1.28-0.31,2.04-0.94c0.75-0.63,1.5-1.47,2.24-2.52c0.74-1.05,1.45-2.25,2.12-3.58c0.67-1.33,1.28-2.75,1.81-4.26l0.7-1.95
			c-0.46-0.63-1.04-1.12-1.72-1.48c-0.68-0.36-1.39-0.54-2.11-0.54c-1.42,0-2.68,0.49-3.79,1.48c-1.11,0.99-1.97,2.31-2.57,3.97
			c-0.6,1.66-0.9,3.5-0.9,5.51c0,1.42,0.18,2.49,0.56,3.22C740.15,1791.33,740.7,1791.7,741.42,1791.7z"/>
		<path class="st3" d="M774.57,1793.09c-0.05-0.56-0.07-1.07-0.07-1.53c0-2.06,0.29-4.46,0.87-7.2c-1.25,2.88-2.6,5.1-4.05,6.66
			c-1.45,1.57-2.89,2.35-4.33,2.35c-1.14,0-2.02-0.51-2.66-1.53c-0.64-1.02-0.96-2.44-0.96-4.25c0-2.43,0.43-4.63,1.29-6.59
			c0.86-1.96,1.98-3.48,3.38-4.56c1.39-1.08,2.9-1.62,4.52-1.62c1.65,0,3.06,0.63,4.25,1.88l2.16-9.88l1.81-0.14l-3.27,14.96
			c-0.44,2.04-0.75,3.78-0.92,5.2c-0.17,1.43-0.26,2.94-0.26,4.54c0,0.51,0.02,1,0.07,1.46L774.57,1793.09z M767.58,1791.7
			c0.9,0,1.95-0.66,3.15-1.98c1.19-1.32,2.29-2.98,3.29-4.98c1-1.99,1.8-4.12,2.4-6.37c-0.46-0.6-1.03-1.08-1.69-1.43
			s-1.35-0.52-2.07-0.52c-1.46,0-2.75,0.49-3.86,1.46c-1.11,0.97-1.98,2.29-2.59,3.95c-0.62,1.66-0.92,3.51-0.92,5.55
			C765.28,1790.26,766.05,1791.7,767.58,1791.7z"/>
		<path class="st3" d="M795.48,1778.72c0,2.04-1.01,3.65-3.04,4.82c-2.03,1.17-4.97,1.84-8.82,2c-0.05,0.51-0.07,0.99-0.07,1.43
			c0,1.58,0.31,2.77,0.94,3.58c0.63,0.81,1.54,1.22,2.75,1.22c0.93,0,1.88-0.18,2.85-0.56c0.97-0.37,1.92-0.92,2.85-1.63l0.59,1.36
			c-1,0.79-2.06,1.39-3.2,1.81c-1.14,0.42-2.29,0.63-3.44,0.63c-1.67,0-2.96-0.54-3.88-1.62c-0.92-1.08-1.37-2.59-1.37-4.54
			c0-2.23,0.46-4.3,1.39-6.23c0.93-1.93,2.11-3.43,3.55-4.52c1.44-1.09,2.95-1.63,4.52-1.63c1.3,0,2.35,0.37,3.17,1.1
			S795.48,1777.58,795.48,1778.72z M791.06,1776.39c-1.65,0-3.15,0.73-4.51,2.17c-1.36,1.45-2.27,3.31-2.73,5.58
			c3.11-0.14,5.51-0.67,7.22-1.6s2.56-2.17,2.56-3.72c0-0.74-0.22-1.33-0.66-1.77S791.87,1776.39,791.06,1776.39z"/>
		<path class="st3" d="M817.16,1790.93c-0.93,0.79-1.93,1.39-2.99,1.81c-1.07,0.42-2.15,0.63-3.24,0.63c-1.67,0-2.96-0.54-3.88-1.62
			c-0.92-1.08-1.37-2.59-1.37-4.54c0-2.23,0.46-4.3,1.37-6.23c0.92-1.93,2.09-3.43,3.51-4.52c1.43-1.09,2.92-1.63,4.47-1.63
			c1.44,0,2.75,0.44,3.93,1.32l-0.77,1.43c-1.04-0.72-2.11-1.08-3.2-1.08c-1.37,0-2.63,0.5-3.78,1.5c-1.15,1-2.04,2.29-2.68,3.88
			s-0.96,3.29-0.96,5.1c0,1.58,0.31,2.77,0.94,3.58c0.63,0.81,1.54,1.22,2.75,1.22c1.72,0,3.48-0.73,5.29-2.19L817.16,1790.93z"/>
		<path class="st3" d="M826.24,1793.37c-1.69,0-3.05-0.63-4.07-1.9c-1.02-1.26-1.53-2.95-1.53-5.06c0-2.09,0.44-4.03,1.32-5.83
			c0.88-1.8,2.01-3.21,3.38-4.23c1.37-1.02,2.81-1.53,4.31-1.53c1.69,0,3.05,0.63,4.07,1.9c1.02,1.26,1.53,2.95,1.53,5.06
			c0,2.09-0.44,4.03-1.32,5.83c-0.88,1.8-2.01,3.21-3.38,4.23C829.18,1792.86,827.74,1793.37,826.24,1793.37z M826.65,1791.77
			c1.18,0,2.3-0.49,3.34-1.46c1.04-0.97,1.86-2.2,2.45-3.67s0.89-2.99,0.89-4.54c0-1.76-0.37-3.15-1.1-4.16s-1.73-1.51-3.01-1.51
			c-1.18,0-2.3,0.49-3.34,1.46c-1.04,0.97-1.86,2.2-2.45,3.67c-0.59,1.47-0.89,2.99-0.89,4.54c0,1.76,0.37,3.15,1.1,4.16
			S825.38,1791.77,826.65,1791.77z"/>
		<path class="st3" d="M838.03,1793.02l1.98-10.96c0.37-2.06,0.56-3.82,0.56-5.25c0-0.51-0.02-1-0.07-1.46l1.81-0.24
			c0.05,0.56,0.07,1.07,0.07,1.53c0,0.74-0.07,1.69-0.21,2.85c-0.14,1.16-0.33,2.28-0.56,3.37c1.25-2.57,2.58-4.56,3.98-5.95
			s2.79-2.09,4.16-2.09c0.95,0,1.69,0.37,2.23,1.11c0.53,0.74,0.8,1.74,0.8,2.99c0,0.9-0.1,1.94-0.31,3.1
			c1.23-2.37,2.49-4.16,3.79-5.38c1.3-1.22,2.61-1.83,3.93-1.83c0.95,0,1.69,0.37,2.23,1.11c0.53,0.74,0.8,1.74,0.8,2.99
			c0,1.14-0.15,2.42-0.45,3.86l-2.05,10.23h-1.81l2.05-10.26c0.25-1.23,0.38-2.35,0.38-3.37c0-0.9-0.15-1.61-0.43-2.12
			c-0.29-0.51-0.71-0.77-1.27-0.77c-0.97,0-2.06,0.64-3.25,1.91c-1.19,1.28-2.26,2.77-3.18,4.47c-0.93,1.71-1.52,3.18-1.77,4.44
			l-1.15,5.71h-1.81l2.05-10.26c0.26-1.23,0.38-2.35,0.38-3.37c0-0.9-0.14-1.61-0.43-2.12c-0.29-0.51-0.71-0.77-1.27-0.77
			c-1,0-2.12,0.69-3.38,2.07c-1.25,1.38-2.35,2.97-3.3,4.78c-0.95,1.81-1.55,3.42-1.81,4.84l-0.87,4.84H838.03z"/>
		<path class="st3" d="M870.14,1775.24l1.81-0.14l-2.3,10.3c-0.3,1.28-0.45,2.42-0.45,3.44c0,1.9,0.59,2.85,1.77,2.85
			c1.02,0,2.16-0.7,3.43-2.1c1.26-1.4,2.41-3.14,3.43-5.2s1.77-4.16,2.26-6.3l0.66-2.85l1.81-0.14l-1.46,6.54
			c-0.42,1.93-0.72,3.64-0.9,5.13c-0.19,1.5-0.28,3.03-0.28,4.61c0,0.51,0.02,1,0.07,1.46l-1.81,0.24
			c-0.05-0.56-0.07-1.07-0.07-1.53c0-2.04,0.29-4.43,0.87-7.17c-1.25,2.88-2.62,5.09-4.09,6.64c-1.47,1.55-2.96,2.33-4.47,2.33
			c-1,0-1.76-0.35-2.3-1.04c-0.53-0.7-0.8-1.7-0.8-3.03c0-1.11,0.17-2.41,0.52-3.9L870.14,1775.24z"/>
		<path class="st3" d="M884.75,1793.02l1.98-10.96c0.37-2.06,0.56-3.82,0.56-5.25c0-0.51-0.02-1-0.07-1.46l1.81-0.24
			c0.05,0.56,0.07,1.07,0.07,1.53c0,0.74-0.07,1.69-0.21,2.85c-0.14,1.16-0.33,2.28-0.56,3.37c1.3-2.64,2.64-4.64,4.04-6
			s2.81-2.04,4.24-2.04c1,0,1.77,0.36,2.33,1.08c0.56,0.72,0.83,1.73,0.83,3.03c0,1.14-0.15,2.42-0.45,3.86l-2.05,10.23h-1.81
			l2.05-10.26c0.26-1.23,0.38-2.35,0.38-3.37c0-0.93-0.16-1.64-0.47-2.14c-0.31-0.5-0.77-0.75-1.37-0.75c-1.04,0-2.2,0.68-3.46,2.05
			c-1.26,1.37-2.38,2.96-3.34,4.77c-0.96,1.81-1.57,3.43-1.83,4.87l-0.87,4.84H884.75z"/>
		<path class="st3" d="M906.29,1775.24l1.81-0.14l-3.2,17.92h-1.81L906.29,1775.24z M906.5,1768.63c0-0.46,0.17-0.86,0.5-1.2
			c0.34-0.34,0.74-0.5,1.2-0.5c0.44,0,0.8,0.13,1.08,0.38s0.42,0.59,0.42,1.01c0,0.46-0.17,0.86-0.5,1.2s-0.74,0.5-1.2,0.5
			c-0.44,0-0.8-0.13-1.08-0.38S906.5,1769.05,906.5,1768.63z"/>
		<path class="st3" d="M922.29,1790.93c-0.93,0.79-1.93,1.39-2.99,1.81c-1.07,0.42-2.15,0.63-3.24,0.63c-1.67,0-2.96-0.54-3.88-1.62
			c-0.92-1.08-1.37-2.59-1.37-4.54c0-2.23,0.46-4.3,1.37-6.23c0.92-1.93,2.09-3.43,3.51-4.52c1.43-1.09,2.92-1.63,4.47-1.63
			c1.44,0,2.75,0.44,3.93,1.32l-0.77,1.43c-1.04-0.72-2.11-1.08-3.2-1.08c-1.37,0-2.63,0.5-3.78,1.5c-1.15,1-2.04,2.29-2.68,3.88
			s-0.96,3.29-0.96,5.1c0,1.58,0.31,2.77,0.94,3.58c0.63,0.81,1.54,1.22,2.75,1.22c1.72,0,3.48-0.73,5.29-2.19L922.29,1790.93z"/>
		<path class="st3" d="M929.28,1793.37c-1.09,0-1.95-0.52-2.57-1.55s-0.94-2.44-0.94-4.23c0-2.41,0.42-4.6,1.27-6.58
			c0.85-1.97,1.96-3.5,3.34-4.58c1.38-1.08,2.87-1.62,4.47-1.62c0.86,0,1.67,0.18,2.44,0.54c0.77,0.36,1.44,0.88,2.02,1.55
			l0.63-1.81l1.57,0.28c-2,5.84-2.99,11.18-2.99,16c0,0.51,0.02,1,0.07,1.46l-1.81,0.24c-0.05-0.56-0.07-1.07-0.07-1.53
			c0-2.06,0.29-4.46,0.87-7.2c-1.25,2.85-2.6,5.07-4.04,6.65C932.09,1792.58,930.67,1793.37,929.28,1793.37z M929.87,1791.7
			c0.6,0,1.28-0.31,2.04-0.94c0.75-0.63,1.5-1.47,2.24-2.52c0.74-1.05,1.45-2.25,2.12-3.58c0.67-1.33,1.28-2.75,1.81-4.26l0.7-1.95
			c-0.46-0.63-1.04-1.12-1.72-1.48c-0.68-0.36-1.39-0.54-2.11-0.54c-1.42,0-2.68,0.49-3.79,1.48c-1.11,0.99-1.97,2.31-2.57,3.97
			c-0.6,1.66-0.9,3.5-0.9,5.51c0,1.42,0.18,2.49,0.56,3.22C928.61,1791.33,929.16,1791.7,929.87,1791.7z"/>
		<path class="st3" d="M955.03,1793.09c-0.05-0.56-0.07-1.07-0.07-1.53c0-2.06,0.29-4.46,0.87-7.2c-1.25,2.88-2.6,5.1-4.05,6.66
			c-1.45,1.57-2.89,2.35-4.33,2.35c-1.14,0-2.02-0.51-2.66-1.53c-0.64-1.02-0.96-2.44-0.96-4.25c0-2.43,0.43-4.63,1.29-6.59
			c0.86-1.96,1.98-3.48,3.38-4.56c1.39-1.08,2.9-1.62,4.52-1.62c1.65,0,3.06,0.63,4.25,1.88l2.16-9.88l1.81-0.14l-3.27,14.96
			c-0.44,2.04-0.75,3.78-0.92,5.2c-0.17,1.43-0.26,2.94-0.26,4.54c0,0.51,0.02,1,0.07,1.46L955.03,1793.09z M948.04,1791.7
			c0.9,0,1.95-0.66,3.15-1.98c1.19-1.32,2.29-2.98,3.29-4.98c1-1.99,1.8-4.12,2.4-6.37c-0.46-0.6-1.03-1.08-1.69-1.43
			s-1.35-0.52-2.07-0.52c-1.46,0-2.75,0.49-3.86,1.46c-1.11,0.97-1.98,2.29-2.59,3.95c-0.62,1.66-0.92,3.51-0.92,5.55
			C945.74,1790.26,946.5,1791.7,948.04,1791.7z"/>
		<path class="st3" d="M967.69,1793.37c-1.69,0-3.05-0.63-4.07-1.9c-1.02-1.26-1.53-2.95-1.53-5.06c0-2.09,0.44-4.03,1.32-5.83
			c0.88-1.8,2.01-3.21,3.38-4.23c1.37-1.02,2.81-1.53,4.31-1.53c1.69,0,3.05,0.63,4.07,1.9c1.02,1.26,1.53,2.95,1.53,5.06
			c0,2.09-0.44,4.03-1.32,5.83c-0.88,1.8-2.01,3.21-3.38,4.23C970.64,1792.86,969.2,1793.37,967.69,1793.37z M968.11,1791.77
			c1.18,0,2.3-0.49,3.34-1.46c1.04-0.97,1.86-2.2,2.45-3.67s0.89-2.99,0.89-4.54c0-1.76-0.37-3.15-1.1-4.16s-1.73-1.51-3.01-1.51
			c-1.18,0-2.3,0.49-3.34,1.46c-1.04,0.97-1.86,2.2-2.45,3.67c-0.59,1.47-0.89,2.99-0.89,4.54c0,1.76,0.37,3.15,1.1,4.16
			S966.83,1791.77,968.11,1791.77z"/>
		<path class="st3" d="M618.47,1816.99l1.81-0.14l-3.2,17.92h-1.81L618.47,1816.99z M618.68,1810.38c0-0.46,0.17-0.86,0.5-1.2
			c0.34-0.34,0.74-0.5,1.2-0.5c0.44,0,0.8,0.13,1.08,0.38s0.42,0.59,0.42,1.01c0,0.46-0.17,0.86-0.5,1.2s-0.74,0.5-1.2,0.5
			c-0.44,0-0.8-0.13-1.08-0.38S618.68,1810.8,618.68,1810.38z"/>
		<path class="st3" d="M622.64,1834.77l1.98-10.96c0.37-2.06,0.56-3.82,0.56-5.25c0-0.51-0.02-1-0.07-1.46l1.81-0.24
			c0.05,0.56,0.07,1.07,0.07,1.53c0,0.74-0.07,1.69-0.21,2.85c-0.14,1.16-0.33,2.28-0.56,3.37c1.3-2.64,2.64-4.64,4.04-6
			s2.81-2.04,4.24-2.04c1,0,1.77,0.36,2.33,1.08c0.56,0.72,0.83,1.73,0.83,3.03c0,1.14-0.15,2.42-0.45,3.86l-2.05,10.23h-1.81
			l2.05-10.26c0.26-1.23,0.38-2.35,0.38-3.37c0-0.93-0.16-1.64-0.47-2.14c-0.31-0.5-0.77-0.75-1.37-0.75c-1.04,0-2.2,0.68-3.46,2.05
			c-1.26,1.37-2.38,2.96-3.34,4.77c-0.96,1.81-1.57,3.43-1.83,4.87l-0.87,4.84H622.64z"/>
		<path class="st3" d="M652.81,1832.68c-0.93,0.79-1.93,1.39-2.99,1.81c-1.07,0.42-2.15,0.63-3.24,0.63c-1.67,0-2.96-0.54-3.88-1.62
			c-0.92-1.08-1.37-2.59-1.37-4.54c0-2.23,0.46-4.3,1.37-6.23c0.92-1.93,2.09-3.43,3.51-4.52c1.43-1.09,2.92-1.63,4.47-1.63
			c1.44,0,2.75,0.44,3.93,1.32l-0.77,1.43c-1.04-0.72-2.11-1.08-3.2-1.08c-1.37,0-2.63,0.5-3.78,1.5c-1.15,1-2.04,2.29-2.68,3.88
			s-0.96,3.29-0.96,5.1c0,1.58,0.31,2.77,0.94,3.58c0.63,0.81,1.54,1.22,2.75,1.22c1.72,0,3.48-0.73,5.29-2.19L652.81,1832.68z"/>
		<path class="st3" d="M656.28,1834.77l1.98-10.96c0.37-2.06,0.56-3.82,0.56-5.25c0-0.51-0.02-1-0.07-1.46l1.81-0.24
			c0.05,0.56,0.07,1.07,0.07,1.53c0,1.44-0.21,3.29-0.63,5.57c0.97-2.18,2.07-3.92,3.29-5.24c1.22-1.31,2.37-1.97,3.46-1.97
			c0.49,0,0.97,0.13,1.46,0.38l-0.52,1.77c-0.35-0.14-0.71-0.21-1.08-0.21c-0.95,0-1.98,0.63-3.08,1.9c-1.1,1.26-2.08,2.77-2.92,4.5
			s-1.4,3.35-1.65,4.84l-0.87,4.84H656.28z"/>
		<path class="st3" d="M672.11,1816.99l1.81-0.14l-3.2,17.92h-1.81L672.11,1816.99z M672.11,1813.34l5.11-5.6l1.39,1.74
			c-1.46,1.37-3.37,3-5.74,4.91L672.11,1813.34z"/>
		<path class="st3" d="M677.92,1817.1l1.84-0.24l1.04,15.86c2.74-2.6,4.74-4.91,6.02-6.92c1.28-2.02,1.91-3.9,1.91-5.64
			c0-0.93-0.16-1.92-0.49-2.99l1.77-0.59c0.19,0.42,0.34,0.92,0.45,1.5s0.17,1.11,0.17,1.6c0,1.51-0.33,3.01-0.97,4.51
			c-0.65,1.5-1.69,3.1-3.13,4.8c-1.44,1.71-3.39,3.64-5.84,5.79h-1.57L677.92,1817.1z"/>
		<path class="st3" d="M706.59,1820.47c0,2.04-1.01,3.65-3.04,4.82c-2.03,1.17-4.97,1.84-8.82,2c-0.05,0.51-0.07,0.99-0.07,1.43
			c0,1.58,0.31,2.77,0.94,3.58c0.63,0.81,1.54,1.22,2.75,1.22c0.93,0,1.88-0.18,2.85-0.56c0.97-0.37,1.92-0.92,2.85-1.63l0.59,1.36
			c-1,0.79-2.06,1.39-3.2,1.81c-1.14,0.42-2.29,0.63-3.44,0.63c-1.67,0-2.96-0.54-3.88-1.62c-0.92-1.08-1.37-2.59-1.37-4.54
			c0-2.23,0.46-4.3,1.39-6.23c0.93-1.93,2.11-3.43,3.55-4.52c1.44-1.09,2.95-1.63,4.52-1.63c1.3,0,2.35,0.37,3.17,1.1
			S706.59,1819.33,706.59,1820.47z M702.17,1818.14c-1.65,0-3.15,0.73-4.51,2.17c-1.36,1.45-2.27,3.31-2.73,5.58
			c3.11-0.14,5.51-0.67,7.22-1.6s2.56-2.17,2.56-3.72c0-0.74-0.22-1.33-0.66-1.77S702.98,1818.14,702.17,1818.14z"/>
		<path class="st3" d="M713.17,1808.57l1.81-0.14l-4.73,26.34h-1.81L713.17,1808.57z"/>
		<path class="st3" d="M735.64,1832.68c-0.93,0.79-1.93,1.39-2.99,1.81c-1.07,0.42-2.15,0.63-3.24,0.63c-1.67,0-2.96-0.54-3.88-1.62
			c-0.92-1.08-1.37-2.59-1.37-4.54c0-2.23,0.46-4.3,1.37-6.23c0.92-1.93,2.09-3.43,3.51-4.52c1.43-1.09,2.92-1.63,4.47-1.63
			c1.44,0,2.75,0.44,3.93,1.32l-0.77,1.43c-1.04-0.72-2.11-1.08-3.2-1.08c-1.37,0-2.63,0.5-3.78,1.5c-1.15,1-2.04,2.29-2.68,3.88
			s-0.96,3.29-0.96,5.1c0,1.58,0.31,2.77,0.94,3.58c0.63,0.81,1.54,1.22,2.75,1.22c1.72,0,3.48-0.73,5.29-2.19L735.64,1832.68z"/>
		<path class="st3" d="M744.72,1835.12c-1.69,0-3.05-0.63-4.07-1.9c-1.02-1.26-1.53-2.95-1.53-5.06c0-2.09,0.44-4.03,1.32-5.83
			c0.88-1.8,2.01-3.21,3.38-4.23c1.37-1.02,2.81-1.53,4.31-1.53c1.69,0,3.05,0.63,4.07,1.9c1.02,1.26,1.53,2.95,1.53,5.06
			c0,2.09-0.44,4.03-1.32,5.83c-0.88,1.8-2.01,3.21-3.38,4.23C747.67,1834.61,746.23,1835.12,744.72,1835.12z M745.14,1833.52
			c1.18,0,2.3-0.49,3.34-1.46c1.04-0.97,1.86-2.2,2.45-3.67s0.89-2.99,0.89-4.54c0-1.76-0.37-3.15-1.1-4.16s-1.73-1.51-3.01-1.51
			c-1.18,0-2.3,0.49-3.34,1.46c-1.04,0.97-1.86,2.2-2.45,3.67c-0.59,1.47-0.89,2.99-0.89,4.54c0,1.76,0.37,3.15,1.1,4.16
			S743.86,1833.52,745.14,1833.52z"/>
		<path class="st3" d="M756.51,1834.77l1.98-10.96c0.37-2.06,0.56-3.82,0.56-5.25c0-0.51-0.02-1-0.07-1.46l1.81-0.24
			c0.05,0.56,0.07,1.07,0.07,1.53c0,0.74-0.07,1.69-0.21,2.85c-0.14,1.16-0.33,2.28-0.56,3.37c1.25-2.57,2.58-4.56,3.98-5.95
			s2.79-2.09,4.16-2.09c0.95,0,1.69,0.37,2.23,1.11c0.53,0.74,0.8,1.74,0.8,2.99c0,0.9-0.1,1.94-0.31,3.1
			c1.23-2.37,2.49-4.16,3.79-5.38c1.3-1.22,2.61-1.83,3.93-1.83c0.95,0,1.69,0.37,2.23,1.11c0.53,0.74,0.8,1.74,0.8,2.99
			c0,1.14-0.15,2.42-0.45,3.86l-2.05,10.23h-1.81l2.05-10.26c0.25-1.23,0.38-2.35,0.38-3.37c0-0.9-0.15-1.61-0.43-2.12
			c-0.29-0.51-0.71-0.77-1.27-0.77c-0.97,0-2.06,0.64-3.25,1.91c-1.19,1.28-2.26,2.77-3.18,4.47c-0.93,1.71-1.52,3.18-1.77,4.44
			l-1.15,5.71h-1.81l2.05-10.26c0.26-1.23,0.38-2.35,0.38-3.37c0-0.9-0.14-1.61-0.43-2.12c-0.29-0.51-0.71-0.77-1.27-0.77
			c-1,0-2.12,0.69-3.38,2.07c-1.25,1.38-2.35,2.97-3.3,4.78c-0.95,1.81-1.55,3.42-1.81,4.84l-0.87,4.84H756.51z"/>
		<path class="st3" d="M788.21,1816.99l1.81-0.14l-3.2,17.92h-1.81L788.21,1816.99z M788.42,1810.38c0-0.46,0.17-0.86,0.5-1.2
			c0.34-0.34,0.74-0.5,1.2-0.5c0.44,0,0.8,0.13,1.08,0.38s0.42,0.59,0.42,1.01c0,0.46-0.17,0.86-0.5,1.2s-0.74,0.5-1.2,0.5
			c-0.44,0-0.8-0.13-1.08-0.38S788.42,1810.8,788.42,1810.38z"/>
		<path class="st3" d="M795.51,1842.77c-0.79,0-1.62-0.12-2.5-0.37c-0.88-0.24-1.68-0.59-2.4-1.03l0.63-1.53
			c1.42,0.88,2.84,1.32,4.28,1.32c1.48,0,2.71-0.28,3.69-0.85c0.97-0.57,1.8-1.54,2.47-2.9c0.67-1.37,1.26-3.33,1.77-5.88
			c0.53-2.71,0.94-4.58,1.22-5.6c-1.28,2.81-2.64,4.98-4.09,6.52c-1.45,1.54-2.88,2.31-4.3,2.31c-1.09,0-1.95-0.5-2.59-1.51
			c-0.64-1.01-0.96-2.37-0.96-4.09c0-2.39,0.43-4.55,1.29-6.49s1.97-3.44,3.34-4.5c1.37-1.07,2.85-1.6,4.45-1.6
			c1.76,0,3.26,0.74,4.49,2.23l0.7-1.95l1.57,0.28c-0.63,2-1.15,3.87-1.57,5.64c-0.42,1.76-1.01,4.7-1.77,8.8
			c-0.49,2.64-1.14,4.78-1.95,6.42c-0.81,1.64-1.84,2.84-3.1,3.62C798.92,1842.38,797.37,1842.77,795.51,1842.77z M796.87,1833.1
			c0.81,0,1.73-0.51,2.77-1.53c1.03-1.02,2.04-2.37,3.01-4.04c0.97-1.67,1.81-3.47,2.5-5.39l0.66-1.81
			c-0.46-0.67-1.04-1.2-1.74-1.58c-0.7-0.38-1.42-0.57-2.16-0.57c-1.42,0-2.68,0.49-3.79,1.46c-1.11,0.97-1.97,2.28-2.57,3.91
			c-0.6,1.63-0.9,3.44-0.9,5.41c0,1.34,0.19,2.37,0.57,3.08C795.6,1832.75,796.15,1833.1,796.87,1833.1z"/>
		<path class="st3" d="M816.25,1835.12c-1.69,0-3.05-0.63-4.07-1.9c-1.02-1.26-1.53-2.95-1.53-5.06c0-2.09,0.44-4.03,1.32-5.83
			c0.88-1.8,2.01-3.21,3.38-4.23c1.37-1.02,2.81-1.53,4.31-1.53c1.69,0,3.05,0.63,4.07,1.9c1.02,1.26,1.53,2.95,1.53,5.06
			c0,2.09-0.44,4.03-1.32,5.83c-0.88,1.8-2.01,3.21-3.38,4.23C819.19,1834.61,817.76,1835.12,816.25,1835.12z M816.67,1833.52
			c1.18,0,2.3-0.49,3.34-1.46c1.04-0.97,1.86-2.2,2.45-3.67s0.89-2.99,0.89-4.54c0-1.76-0.37-3.15-1.1-4.16s-1.73-1.51-3.01-1.51
			c-1.18,0-2.3,0.49-3.34,1.46c-1.04,0.97-1.86,2.2-2.45,3.67c-0.59,1.47-0.89,2.99-0.89,4.54c0,1.76,0.37,3.15,1.1,4.16
			S815.39,1833.52,816.67,1833.52z"/>
		<path class="st3" d="M823.9,1839.74c2.44-2.23,3.65-4.17,3.65-5.84c0-0.56-0.15-1.12-0.45-1.7c0.53-0.35,1.07-0.52,1.6-0.52
			c0.44,0,0.79,0.12,1.04,0.37c0.25,0.24,0.38,0.57,0.38,0.99c0,0.97-0.51,2.16-1.53,3.57c-1.02,1.4-2.34,2.74-3.97,4.02
			L823.9,1839.74z"/>
		<path class="st3" d="M847.46,1810.42h6.26c2.3,0,4.1,0.54,5.41,1.62c1.31,1.08,1.97,2.53,1.97,4.37c0,1.95-0.6,3.61-1.81,4.97
			c-1.21,1.37-2.93,2.35-5.18,2.96c0.14,0.07,0.39,0.39,0.77,0.97l5.92,9.46h-2.26l-6.19-9.95h-5.29l-1.6,9.95h-1.91L847.46,1810.42
			z M849.09,1812.19l-1.77,10.85h3.2c1.81,0,3.36-0.27,4.64-0.8s2.27-1.29,2.94-2.26c0.67-0.97,1.01-2.08,1.01-3.3
			c0-1.44-0.48-2.55-1.44-3.32c-0.96-0.78-2.36-1.17-4.19-1.17H849.09z"/>
		<path class="st3" d="M878,1820.47c0,2.04-1.01,3.65-3.04,4.82c-2.03,1.17-4.97,1.84-8.82,2c-0.05,0.51-0.07,0.99-0.07,1.43
			c0,1.58,0.31,2.77,0.94,3.58c0.63,0.81,1.54,1.22,2.75,1.22c0.93,0,1.88-0.18,2.85-0.56c0.97-0.37,1.92-0.92,2.85-1.63l0.59,1.36
			c-1,0.79-2.06,1.39-3.2,1.81c-1.14,0.42-2.29,0.63-3.44,0.63c-1.67,0-2.96-0.54-3.88-1.62c-0.92-1.08-1.37-2.59-1.37-4.54
			c0-2.23,0.46-4.3,1.39-6.23c0.93-1.93,2.11-3.43,3.55-4.52c1.44-1.09,2.95-1.63,4.52-1.63c1.3,0,2.35,0.37,3.17,1.1
			S878,1819.33,878,1820.47z M873.58,1818.14c-1.65,0-3.15,0.73-4.51,2.17c-1.36,1.45-2.27,3.31-2.73,5.58
			c3.11-0.14,5.51-0.67,7.22-1.6s2.56-2.17,2.56-3.72c0-0.74-0.22-1.33-0.66-1.77S874.4,1818.14,873.58,1818.14z"/>
		<path class="st3" d="M879.85,1834.77l1.98-10.96c0.37-2.06,0.56-3.82,0.56-5.25c0-0.51-0.02-1-0.07-1.46l1.81-0.24
			c0.05,0.56,0.07,1.07,0.07,1.53c0,0.74-0.07,1.69-0.21,2.85c-0.14,1.16-0.33,2.28-0.56,3.37c1.3-2.64,2.64-4.64,4.04-6
			s2.81-2.04,4.24-2.04c1,0,1.77,0.36,2.33,1.08c0.56,0.72,0.83,1.73,0.83,3.03c0,1.14-0.15,2.42-0.45,3.86l-2.05,10.23h-1.81
			l2.05-10.26c0.26-1.23,0.38-2.35,0.38-3.37c0-0.93-0.16-1.64-0.47-2.14c-0.31-0.5-0.77-0.75-1.37-0.75c-1.04,0-2.2,0.68-3.46,2.05
			c-1.26,1.37-2.38,2.96-3.34,4.77c-0.96,1.81-1.57,3.43-1.83,4.87l-0.87,4.84H879.85z"/>
		<path class="st3" d="M902.04,1835.12c-1.09,0-1.95-0.52-2.57-1.55s-0.94-2.44-0.94-4.23c0-2.41,0.42-4.6,1.27-6.58
			c0.85-1.97,1.96-3.5,3.34-4.58c1.38-1.08,2.87-1.62,4.47-1.62c0.86,0,1.67,0.18,2.44,0.54c0.77,0.36,1.44,0.88,2.02,1.55
			l0.63-1.81l1.57,0.28c-2,5.84-2.99,11.18-2.99,16c0,0.51,0.02,1,0.07,1.46l-1.81,0.24c-0.05-0.56-0.07-1.07-0.07-1.53
			c0-2.06,0.29-4.46,0.87-7.2c-1.25,2.85-2.6,5.07-4.04,6.65C904.85,1834.33,903.43,1835.12,902.04,1835.12z M902.63,1833.45
			c0.6,0,1.28-0.31,2.04-0.94c0.75-0.63,1.5-1.47,2.24-2.52c0.74-1.05,1.45-2.25,2.12-3.58c0.67-1.33,1.28-2.75,1.81-4.26l0.7-1.95
			c-0.46-0.63-1.04-1.12-1.72-1.48c-0.68-0.36-1.39-0.54-2.11-0.54c-1.42,0-2.68,0.49-3.79,1.48c-1.11,0.99-1.97,2.31-2.57,3.97
			c-0.6,1.66-0.9,3.5-0.9,5.51c0,1.42,0.18,2.49,0.56,3.22C901.37,1833.08,901.91,1833.45,902.63,1833.45z"/>
		<path class="st3" d="M920.03,1818.52h-3.1l0.28-1.6h3.13l1.15-5.04l1.53-0.14l-0.94,5.18h4.63l-0.28,1.6h-4.63l-1.5,8.42
			c-0.35,1.97-0.52,3.47-0.52,4.49c0,0.7,0.13,1.19,0.38,1.5c0.25,0.3,0.68,0.45,1.29,0.45c1,0,2.1-0.38,3.3-1.15l0.45,1.46
			c-1.39,0.95-2.77,1.43-4.14,1.43c-1.04,0-1.84-0.28-2.38-0.83s-0.82-1.37-0.82-2.44c0-0.95,0.19-2.43,0.56-4.45L920.03,1818.52z"
			/>
		<path class="st3" d="M932.31,1835.12c-1.09,0-1.95-0.52-2.57-1.55s-0.94-2.44-0.94-4.23c0-2.41,0.42-4.6,1.27-6.58
			c0.85-1.97,1.96-3.5,3.34-4.58c1.38-1.08,2.87-1.62,4.47-1.62c0.86,0,1.67,0.18,2.44,0.54c0.77,0.36,1.44,0.88,2.02,1.55
			l0.63-1.81l1.57,0.28c-2,5.84-2.99,11.18-2.99,16c0,0.51,0.02,1,0.07,1.46l-1.81,0.24c-0.05-0.56-0.07-1.07-0.07-1.53
			c0-2.06,0.29-4.46,0.87-7.2c-1.25,2.85-2.6,5.07-4.04,6.65C935.12,1834.33,933.7,1835.12,932.31,1835.12z M932.9,1833.45
			c0.6,0,1.28-0.31,2.04-0.94c0.75-0.63,1.5-1.47,2.24-2.52c0.74-1.05,1.45-2.25,2.12-3.58c0.67-1.33,1.28-2.75,1.81-4.26l0.7-1.95
			c-0.46-0.63-1.04-1.12-1.72-1.48c-0.68-0.36-1.39-0.54-2.11-0.54c-1.42,0-2.68,0.49-3.79,1.48c-1.11,0.99-1.97,2.31-2.57,3.97
			c-0.6,1.66-0.9,3.5-0.9,5.51c0,1.42,0.18,2.49,0.56,3.22C931.64,1833.08,932.18,1833.45,932.9,1833.45z"/>
		<path class="st3" d="M946.29,1833.66c0-0.53,0.18-0.97,0.54-1.32s0.79-0.52,1.3-0.52c0.44,0,0.8,0.13,1.08,0.4
			s0.42,0.62,0.42,1.06c0,0.51-0.17,0.95-0.52,1.3s-0.79,0.54-1.32,0.54c-0.44,0-0.8-0.13-1.08-0.4
			C946.43,1834.45,946.29,1834.1,946.29,1833.66z"/>
	</g>
</g>
<g>
	<path class="st3" d="M81.79,182.31H69.76l1.08-5.77h12.51l6.86-26.95H75.53l1.08-5.77h15.04l5.65-22.25h6.26l-5.65,22.25h23.58
		l5.65-22.25h6.26l-5.65,22.25h12.03l-1.08,5.77h-12.51l-6.86,26.95H134l-1.08,5.77h-15.04l-5.65,22.25h-6.26l5.65-22.25H88.04
		l-5.65,22.25h-6.26L81.79,182.31z M89.61,176.53h23.46l6.86-26.95H96.46L89.61,176.53z"/>
	<path class="st3" d="M158.29,120.35h20.93c8.1,0,14.57,1.95,19.43,5.83c4.85,3.89,7.28,9.04,7.28,15.46
		c0,6.1-1.65,11.39-4.93,15.88c-3.29,4.49-7.86,7.92-13.71,10.29c-5.85,2.37-12.63,3.55-20.33,3.55h-10.35l-5.29,33.2h-6.62
		L158.29,120.35z M163.95,126.49l-6.25,38.73h10.47c9.54,0,17.08-2.04,22.62-6.14c5.53-4.09,8.3-9.58,8.3-16.48
		c0-5.13-1.83-9.1-5.47-11.91c-3.65-2.81-8.76-4.21-15.34-4.21H163.95z"/>
	<path class="st3" d="M223.73,205.76c-3.77,0-6.74-1.78-8.9-5.35c-2.17-3.57-3.25-8.44-3.25-14.62c0-8.34,1.46-15.92,4.39-22.74
		c2.93-6.82,6.78-12.09,11.55-15.82c4.77-3.73,9.92-5.59,15.46-5.59c2.97,0,5.77,0.62,8.42,1.86c2.65,1.24,4.97,3.03,6.98,5.35
		l2.17-6.26l5.41,0.96c-6.9,20.21-10.35,38.66-10.35,55.34c0,1.77,0.08,3.45,0.24,5.05l-6.26,0.84c-0.16-1.92-0.24-3.69-0.24-5.29
		c0-7.14,1-15.44,3.01-24.9c-4.33,9.86-8.98,17.52-13.95,22.98C233.44,203.04,228.55,205.76,223.73,205.76z M225.78,199.99
		c2.08,0,4.43-1.08,7.04-3.25c2.6-2.17,5.19-5.07,7.76-8.72c2.57-3.65,5.01-7.78,7.34-12.39c2.33-4.61,4.41-9.52,6.26-14.74
		l2.41-6.74c-1.61-2.17-3.59-3.87-5.95-5.11c-2.37-1.24-4.79-1.86-7.28-1.86c-4.89,0-9.26,1.71-13.11,5.11
		c-3.85,3.41-6.82,7.98-8.9,13.71c-2.09,5.73-3.13,12.09-3.13,19.07c0,4.89,0.64,8.6,1.92,11.13
		C221.41,198.73,223.29,199.99,225.78,199.99z"/>
	<path class="st3" d="M283.88,143.09l6.26-0.48l-11.07,61.95h-6.26L283.88,143.09z M284.6,120.23c0-1.6,0.58-2.99,1.74-4.15
		c1.16-1.16,2.54-1.74,4.15-1.74c1.52,0,2.77,0.44,3.73,1.32c0.96,0.88,1.44,2.04,1.44,3.49c0,1.61-0.58,2.99-1.74,4.15
		c-1.16,1.16-2.55,1.74-4.15,1.74c-1.52,0-2.77-0.44-3.73-1.32C285.08,122.84,284.6,121.68,284.6,120.23z"/>
	<path class="st3" d="M294.47,203.6c0.32-2.24,1.4-4.65,3.25-7.22c1.84-2.57,5.37-6.66,10.59-12.27l10.83-11.43l-13.23-28.39
		l5.89-1.68l12.15,26.1l7.1-7.7c4.49-4.81,7.7-8.54,9.62-11.19s3.25-5.09,3.97-7.34l5.77,1.44c-0.32,2.25-1.4,4.65-3.25,7.22
		c-1.85,2.57-5.37,6.66-10.59,12.27l-9.86,10.47l14.07,30.07l-6.26,0.96l-12.63-27.07l-8.06,8.66c-4.49,4.81-7.7,8.54-9.62,11.19
		c-1.92,2.65-3.25,5.09-3.97,7.34L294.47,203.6z"/>
	<path class="st3" d="M367.12,205.76c-3.77,0-6.74-1.78-8.9-5.35c-2.17-3.57-3.25-8.44-3.25-14.62c0-8.34,1.46-15.92,4.39-22.74
		c2.93-6.82,6.78-12.09,11.55-15.82c4.77-3.73,9.92-5.59,15.46-5.59c2.97,0,5.77,0.62,8.42,1.86c2.65,1.24,4.97,3.03,6.98,5.35
		l2.17-6.26l5.41,0.96c-6.9,20.21-10.35,38.66-10.35,55.34c0,1.77,0.08,3.45,0.24,5.05l-6.26,0.84c-0.16-1.92-0.24-3.69-0.24-5.29
		c0-7.14,1-15.44,3.01-24.9c-4.33,9.86-8.98,17.52-13.95,22.98C376.83,203.04,371.94,205.76,367.12,205.76z M369.17,199.99
		c2.08,0,4.43-1.08,7.04-3.25c2.6-2.17,5.19-5.07,7.76-8.72c2.57-3.65,5.01-7.78,7.34-12.39c2.33-4.61,4.41-9.52,6.26-14.74
		l2.41-6.74c-1.61-2.17-3.59-3.87-5.95-5.11c-2.37-1.24-4.79-1.86-7.28-1.86c-4.89,0-9.26,1.71-13.11,5.11
		c-3.85,3.41-6.82,7.98-8.9,13.71c-2.09,5.73-3.13,12.09-3.13,19.07c0,4.89,0.64,8.6,1.92,11.13
		C364.8,198.73,366.68,199.99,369.17,199.99z M372.3,130.7c0-4.25,0.88-7.6,2.65-10.04c1.76-2.45,4.17-3.67,7.22-3.67
		c1.84,0,3.53,0.36,5.05,1.08c1.52,0.72,3.45,2.09,5.77,4.09c1.6,1.36,2.87,2.29,3.79,2.77c0.92,0.48,1.9,0.72,2.95,0.72
		c3.45,0,5.17-3.17,5.17-9.5l4.93,1.08c0,4.25-0.88,7.6-2.65,10.04c-1.76,2.45-4.17,3.67-7.22,3.67c-1.85,0-3.53-0.36-5.05-1.08
		c-1.52-0.72-3.45-2.08-5.77-4.09c-1.61-1.36-2.87-2.29-3.79-2.77c-0.92-0.48-1.91-0.72-2.95-0.72c-3.45,0-5.17,3.17-5.17,9.5
		L372.3,130.7z"/>
	<path class="st3" d="M436.77,205.76c-5.85,0-10.55-2.18-14.07-6.56c-3.53-4.37-5.29-10.2-5.29-17.5c0-7.22,1.52-13.93,4.57-20.15
		c3.05-6.21,6.94-11.09,11.67-14.62c4.73-3.53,9.7-5.29,14.92-5.29c5.85,0,10.54,2.19,14.07,6.56c3.53,4.37,5.29,10.21,5.29,17.5
		c0,7.22-1.52,13.94-4.57,20.15c-3.05,6.22-6.94,11.09-11.67,14.62C446.96,204,441.99,205.76,436.77,205.76z M438.22,200.23
		c4.09,0,7.94-1.68,11.55-5.05c3.61-3.37,6.44-7.6,8.48-12.69c2.04-5.09,3.07-10.32,3.07-15.7c0-6.09-1.26-10.89-3.79-14.38
		c-2.53-3.49-6-5.23-10.41-5.23c-4.09,0-7.94,1.68-11.55,5.05c-3.61,3.37-6.44,7.6-8.48,12.69c-2.04,5.09-3.07,10.33-3.07,15.7
		c0,6.1,1.26,10.89,3.79,14.38S433.81,200.23,438.22,200.23z"/>
	<path class="st3" d="M86.72,264.71h20.93c8.1,0,14.57,1.95,19.43,5.83c4.85,3.89,7.28,9.04,7.28,15.46c0,6.1-1.65,11.39-4.93,15.88
		c-3.29,4.49-7.86,7.92-13.71,10.29c-5.85,2.37-12.63,3.55-20.33,3.55H85.04l-5.29,33.2h-6.62L86.72,264.71z M92.37,270.84
		l-6.25,38.73h10.47c9.54,0,17.08-2.04,22.62-6.14c5.53-4.09,8.3-9.58,8.3-16.48c0-5.13-1.83-9.1-5.47-11.91
		c-3.65-2.81-8.76-4.21-15.34-4.21H92.37z"/>
	<path class="st3" d="M159.38,350.12c-5.85,0-10.55-2.18-14.07-6.56c-3.53-4.37-5.29-10.2-5.29-17.5c0-7.22,1.52-13.93,4.57-20.15
		c3.05-6.21,6.94-11.09,11.67-14.62c4.73-3.53,9.7-5.29,14.92-5.29c5.85,0,10.54,2.19,14.07,6.56c3.53,4.37,5.29,10.21,5.29,17.5
		c0,7.22-1.52,13.94-4.57,20.15c-3.05,6.22-6.94,11.09-11.67,14.62C169.56,348.36,164.59,350.12,159.38,350.12z M160.82,344.58
		c4.09,0,7.94-1.68,11.55-5.05c3.61-3.37,6.44-7.6,8.48-12.69c2.04-5.09,3.07-10.32,3.07-15.7c0-6.09-1.26-10.89-3.79-14.38
		c-2.53-3.49-6-5.23-10.41-5.23c-4.09,0-7.94,1.68-11.55,5.05c-3.61,3.37-6.44,7.6-8.48,12.69c-2.04,5.09-3.07,10.33-3.07,15.7
		c0,6.1,1.26,10.89,3.79,14.38S156.41,344.58,160.82,344.58z"/>
	<path class="st3" d="M200.16,348.92l6.86-37.89c1.28-7.14,1.92-13.19,1.92-18.16c0-1.76-0.08-3.45-0.24-5.05l6.26-0.84
		c0.16,1.92,0.24,3.69,0.24,5.29c0,4.97-0.72,11.39-2.17,19.25c3.37-7.54,7.16-13.57,11.37-18.1c4.21-4.53,8.2-6.8,11.97-6.8
		c1.68,0,3.37,0.44,5.05,1.32l-1.8,6.14c-1.2-0.48-2.45-0.72-3.73-0.72c-3.29,0-6.84,2.19-10.65,6.56
		c-3.81,4.37-7.18,9.56-10.1,15.58c-2.93,6.01-4.83,11.59-5.71,16.72l-3.01,16.72H200.16z"/>
	<path class="st3" d="M259.22,264.71h6.62l-13.59,84.21h-6.62L259.22,264.71z"/>
	<path class="st3" d="M272.45,348.92l6.86-37.89c1.28-7.14,1.92-13.19,1.92-18.16c0-1.76-0.08-3.45-0.24-5.05l6.26-0.84
		c0.16,1.92,0.24,3.69,0.24,5.29c0,2.57-0.24,5.85-0.72,9.86c-0.48,4.01-1.12,7.9-1.92,11.67c4.49-9.14,9.14-16.06,13.95-20.75
		c4.81-4.69,9.7-7.04,14.68-7.04c3.45,0,6.14,1.24,8.06,3.73c1.92,2.49,2.89,5.98,2.89,10.47c0,3.93-0.52,8.38-1.56,13.35
		l-7.1,35.37h-6.26l7.1-35.49c0.88-4.25,1.32-8.14,1.32-11.67c0-3.21-0.54-5.67-1.62-7.4c-1.08-1.72-2.67-2.59-4.75-2.59
		c-3.61,0-7.6,2.37-11.97,7.1c-4.37,4.73-8.22,10.23-11.55,16.48c-3.33,6.26-5.43,11.87-6.32,16.84l-3.01,16.72H272.45z"/>
	<path class="st3" d="M333.32,338.21c3.37,2.33,6.44,3.97,9.2,4.93c2.77,0.96,5.71,1.44,8.84,1.44c4.49,0,8.1-1.06,10.83-3.19
		c2.73-2.12,4.09-4.91,4.09-8.36c0-2.65-0.84-4.93-2.53-6.86s-4.73-4.05-9.14-6.38c-4.97-2.65-8.56-5.29-10.77-7.94
		c-2.21-2.65-3.31-5.57-3.31-8.78c0-4.89,1.94-8.96,5.83-12.21c3.89-3.25,8.72-4.87,14.5-4.87c5.05,0,10.02,1.36,14.92,4.09
		l-2.17,5.05c-2.41-1.28-4.63-2.2-6.68-2.77c-2.04-0.56-4.23-0.84-6.56-0.84c-3.93,0-7.16,1-9.68,3.01
		c-2.53,2.01-3.79,4.61-3.79,7.82c0,2.41,0.8,4.53,2.41,6.38c1.6,1.85,4.41,3.81,8.42,5.89c3.85,2.01,6.86,3.87,9.02,5.59
		c2.17,1.73,3.73,3.53,4.69,5.41c0.96,1.89,1.44,4.19,1.44,6.92c0,5.13-2.04,9.34-6.14,12.63c-4.09,3.29-9.34,4.93-15.76,4.93
		c-3.69,0-7.3-0.62-10.83-1.86c-3.53-1.24-6.66-2.95-9.38-5.11L333.32,338.21z"/>
	<path class="st3" d="M378.79,375.38l11.67-64.36c1.28-7.14,1.92-13.19,1.92-18.16c0-1.76-0.08-3.45-0.24-5.05l6.26-0.84
		c0.16,1.92,0.24,3.69,0.24,5.29c0,2.41-0.2,5.47-0.6,9.2c-0.4,3.73-0.96,7.4-1.68,11.01c3.77-8.18,8.1-14.63,12.99-19.37
		c4.89-4.73,9.74-7.1,14.56-7.1c3.85,0,6.86,1.79,9.02,5.35c2.17,3.57,3.25,8.44,3.25,14.62c0,8.34-1.46,15.92-4.39,22.74
		c-2.93,6.82-6.78,12.09-11.55,15.82c-4.77,3.73-9.92,5.59-15.46,5.59c-2.73,0-5.29-0.58-7.7-1.74c-2.41-1.16-4.49-2.87-6.26-5.11
		l-5.77,32.12H378.79z M391.9,337.25c1.36,2.33,3.15,4.13,5.35,5.41c2.2,1.28,4.59,1.92,7.16,1.92c4.89,0,9.26-1.7,13.11-5.11
		c3.85-3.41,6.82-7.98,8.9-13.71c2.08-5.73,3.13-12.09,3.13-19.07c0-9.94-2.57-14.92-7.7-14.92c-3.53,0-7.38,2.29-11.55,6.86
		c-4.17,4.57-7.88,10-11.13,16.3c-3.25,6.3-5.35,12.05-6.32,17.26L391.9,337.25z"/>
	<path class="st3" d="M456.86,287.44l6.26-0.48l-11.07,61.95h-6.26L456.86,287.44z M457.58,264.59c0-1.6,0.58-2.99,1.74-4.15
		c1.16-1.16,2.54-1.74,4.15-1.74c1.52,0,2.77,0.44,3.73,1.32c0.96,0.88,1.44,2.04,1.44,3.49c0,1.61-0.58,2.99-1.74,4.15
		c-1.16,1.16-2.55,1.74-4.15,1.74c-1.52,0-2.77-0.44-3.73-1.32C458.07,267.2,457.58,266.03,457.58,264.59z"/>
	<path class="st3" d="M471.3,348.92l6.86-37.89c1.28-7.14,1.92-13.19,1.92-18.16c0-1.76-0.08-3.45-0.24-5.05l6.26-0.84
		c0.16,1.92,0.24,3.69,0.24,5.29c0,4.97-0.72,11.39-2.17,19.25c3.37-7.54,7.16-13.57,11.37-18.1c4.21-4.53,8.2-6.8,11.97-6.8
		c1.68,0,3.37,0.44,5.05,1.32l-1.8,6.14c-1.2-0.48-2.45-0.72-3.73-0.72c-3.29,0-6.84,2.19-10.65,6.56
		c-3.81,4.37-7.18,9.56-10.1,15.58c-2.93,6.01-4.83,11.59-5.71,16.72l-3.01,16.72H471.3z"/>
	<path class="st3" d="M525.31,350.12c-3.77,0-6.74-1.78-8.9-5.35c-2.17-3.57-3.25-8.44-3.25-14.62c0-8.34,1.46-15.92,4.39-22.74
		c2.93-6.82,6.78-12.09,11.55-15.82c4.77-3.73,9.92-5.59,15.46-5.59c2.96,0,5.77,0.62,8.42,1.86c2.65,1.24,4.97,3.03,6.98,5.35
		l2.17-6.26l5.41,0.96c-6.9,20.21-10.35,38.66-10.35,55.34c0,1.77,0.08,3.45,0.24,5.05l-6.26,0.84c-0.16-1.92-0.24-3.69-0.24-5.29
		c0-7.14,1-15.44,3.01-24.9c-4.33,9.86-8.98,17.52-13.95,22.98C535.01,347.39,530.12,350.12,525.31,350.12z M527.35,344.34
		c2.08,0,4.43-1.08,7.04-3.25c2.6-2.17,5.19-5.07,7.76-8.72c2.56-3.65,5.01-7.78,7.34-12.39c2.32-4.61,4.41-9.52,6.26-14.74
		l2.4-6.74c-1.6-2.17-3.59-3.87-5.95-5.11c-2.37-1.24-4.79-1.86-7.28-1.86c-4.89,0-9.26,1.71-13.11,5.11
		c-3.85,3.41-6.82,7.98-8.9,13.71c-2.09,5.73-3.13,12.09-3.13,19.07c0,4.89,0.64,8.6,1.92,11.13
		C522.98,343.08,524.87,344.34,527.35,344.34z"/>
	<path class="st3" d="M574.39,348.92l6.86-37.89c1.28-7.14,1.92-13.19,1.92-18.16c0-1.76-0.08-3.45-0.24-5.05l6.26-0.84
		c0.16,1.92,0.24,3.69,0.24,5.29c0,4.97-0.72,11.39-2.17,19.25c3.37-7.54,7.16-13.57,11.37-18.1c4.21-4.53,8.2-6.8,11.97-6.8
		c1.68,0,3.37,0.44,5.05,1.32l-1.8,6.14c-1.2-0.48-2.45-0.72-3.73-0.72c-3.29,0-6.84,2.19-10.65,6.56
		c-3.81,4.37-7.18,9.56-10.1,15.58c-2.93,6.01-4.83,11.59-5.71,16.72l-3.01,16.72H574.39z"/>
</g>
<g>
	<path class="st4" d="M106.42,1812.47l1.81-0.14l-2.3,10.3c-0.3,1.28-0.45,2.42-0.45,3.44c0,1.9,0.59,2.85,1.77,2.85
		c1.02,0,2.16-0.7,3.43-2.1s2.41-3.14,3.43-5.2s1.77-4.16,2.26-6.3l0.66-2.85l1.81-0.14l-1.46,6.54c-0.42,1.93-0.72,3.64-0.9,5.13
		c-0.19,1.5-0.28,3.03-0.28,4.61c0,0.51,0.02,1,0.07,1.46l-1.81,0.24c-0.05-0.56-0.07-1.07-0.07-1.53c0-2.04,0.29-4.43,0.87-7.17
		c-1.25,2.88-2.62,5.09-4.09,6.64c-1.47,1.55-2.96,2.33-4.47,2.33c-1,0-1.76-0.35-2.3-1.04c-0.53-0.7-0.8-1.7-0.8-3.03
		c0-1.11,0.17-2.41,0.52-3.9L106.42,1812.47z"/>
	<path class="st4" d="M121.03,1830.25l1.98-10.96c0.37-2.06,0.56-3.82,0.56-5.25c0-0.51-0.02-1-0.07-1.46l1.81-0.24
		c0.05,0.56,0.07,1.07,0.07,1.53c0,0.74-0.07,1.69-0.21,2.85s-0.33,2.28-0.56,3.37c1.3-2.64,2.64-4.64,4.04-6s2.81-2.04,4.24-2.04
		c1,0,1.77,0.36,2.33,1.08c0.56,0.72,0.83,1.73,0.83,3.03c0,1.14-0.15,2.42-0.45,3.86l-2.05,10.23h-1.81l2.05-10.26
		c0.25-1.23,0.38-2.35,0.38-3.37c0-0.93-0.16-1.64-0.47-2.14s-0.77-0.75-1.37-0.75c-1.04,0-2.2,0.68-3.46,2.05
		c-1.26,1.37-2.38,2.96-3.34,4.77c-0.96,1.81-1.57,3.43-1.83,4.87l-0.87,4.84H121.03z"/>
	<path class="st4" d="M142.56,1812.47l1.81-0.14l-3.2,17.92h-1.81L142.56,1812.47z M142.77,1805.86c0-0.46,0.17-0.86,0.5-1.2
		c0.34-0.34,0.74-0.5,1.2-0.5c0.44,0,0.8,0.13,1.08,0.38c0.28,0.25,0.42,0.59,0.42,1.01c0,0.46-0.17,0.86-0.5,1.2
		c-0.34,0.34-0.74,0.5-1.2,0.5c-0.44,0-0.8-0.13-1.08-0.38S142.77,1806.28,142.77,1805.86z"/>
	<path class="st4" d="M148.37,1812.58l1.84-0.24l1.04,15.86c2.74-2.6,4.74-4.91,6.02-6.92c1.28-2.02,1.91-3.9,1.91-5.64
		c0-0.93-0.16-1.92-0.49-2.99l1.77-0.59c0.19,0.42,0.34,0.92,0.45,1.5c0.12,0.58,0.17,1.11,0.17,1.6c0,1.51-0.33,3.01-0.97,4.51
		s-1.69,3.1-3.13,4.8c-1.44,1.71-3.39,3.64-5.84,5.79h-1.57L148.37,1812.58z"/>
	<path class="st4" d="M177.04,1815.95c0,2.04-1.01,3.65-3.04,4.82c-2.03,1.17-4.97,1.84-8.82,2c-0.05,0.51-0.07,0.99-0.07,1.43
		c0,1.58,0.31,2.77,0.94,3.58c0.63,0.81,1.54,1.22,2.75,1.22c0.93,0,1.88-0.18,2.85-0.56c0.97-0.37,1.93-0.92,2.85-1.63l0.59,1.36
		c-1,0.79-2.06,1.39-3.2,1.81c-1.14,0.42-2.28,0.63-3.44,0.63c-1.67,0-2.96-0.54-3.88-1.62c-0.92-1.08-1.37-2.59-1.37-4.54
		c0-2.23,0.46-4.3,1.39-6.23c0.93-1.93,2.11-3.43,3.55-4.52c1.44-1.09,2.95-1.63,4.52-1.63c1.3,0,2.35,0.37,3.17,1.1
		S177.04,1814.82,177.04,1815.95z M172.62,1813.62c-1.65,0-3.15,0.73-4.51,2.17c-1.36,1.45-2.27,3.31-2.73,5.58
		c3.11-0.14,5.51-0.67,7.22-1.6c1.7-0.93,2.56-2.17,2.56-3.72c0-0.74-0.22-1.33-0.66-1.77
		C174.06,1813.84,173.43,1813.62,172.62,1813.62z"/>
	<path class="st4" d="M178.88,1830.25l1.98-10.96c0.37-2.06,0.56-3.82,0.56-5.25c0-0.51-0.02-1-0.07-1.46l1.81-0.24
		c0.05,0.56,0.07,1.07,0.07,1.53c0,1.44-0.21,3.29-0.63,5.57c0.97-2.18,2.07-3.92,3.29-5.24s2.37-1.97,3.46-1.97
		c0.49,0,0.97,0.13,1.46,0.38l-0.52,1.77c-0.35-0.14-0.71-0.21-1.08-0.21c-0.95,0-1.98,0.63-3.08,1.9c-1.1,1.26-2.08,2.77-2.92,4.5
		c-0.85,1.74-1.4,3.35-1.65,4.84l-0.87,4.84H178.88z"/>
	<path class="st4" d="M190.78,1827.16c0.97,0.67,1.86,1.15,2.66,1.43s1.65,0.42,2.56,0.42c1.3,0,2.34-0.31,3.13-0.92
		c0.79-0.61,1.18-1.42,1.18-2.42c0-0.76-0.24-1.43-0.73-1.98c-0.49-0.56-1.37-1.17-2.64-1.84c-1.44-0.77-2.48-1.53-3.11-2.3
		c-0.64-0.76-0.96-1.61-0.96-2.54c0-1.42,0.56-2.59,1.69-3.53s2.52-1.41,4.19-1.41c1.46,0,2.9,0.39,4.31,1.18l-0.63,1.46
		c-0.7-0.37-1.34-0.64-1.93-0.8s-1.22-0.24-1.9-0.24c-1.14,0-2.07,0.29-2.8,0.87c-0.73,0.58-1.1,1.33-1.1,2.26
		c0,0.7,0.23,1.31,0.7,1.84c0.46,0.53,1.28,1.1,2.44,1.71c1.11,0.58,1.98,1.12,2.61,1.62c0.63,0.5,1.08,1.02,1.36,1.57
		c0.28,0.55,0.42,1.21,0.42,2c0,1.48-0.59,2.7-1.77,3.65c-1.18,0.95-2.7,1.43-4.56,1.43c-1.07,0-2.11-0.18-3.13-0.54
		c-1.02-0.36-1.93-0.85-2.71-1.48L190.78,1827.16z"/>
	<path class="st4" d="M211.27,1830.6c-1.69,0-3.05-0.63-4.07-1.9c-1.02-1.26-1.53-2.95-1.53-5.06c0-2.09,0.44-4.03,1.32-5.83
		c0.88-1.8,2.01-3.21,3.37-4.23c1.37-1.02,2.81-1.53,4.31-1.53c1.69,0,3.05,0.63,4.07,1.9c1.02,1.26,1.53,2.95,1.53,5.06
		c0,2.09-0.44,4.03-1.32,5.83c-0.88,1.8-2.01,3.21-3.37,4.23C214.22,1830.09,212.78,1830.6,211.27,1830.6z M211.69,1829
		c1.18,0,2.3-0.49,3.34-1.46c1.04-0.97,1.86-2.2,2.45-3.67s0.89-2.99,0.89-4.54c0-1.76-0.37-3.15-1.1-4.16
		c-0.73-1.01-1.73-1.51-3.01-1.51c-1.18,0-2.3,0.49-3.34,1.46c-1.04,0.97-1.86,2.2-2.45,3.67c-0.59,1.47-0.89,2.99-0.89,4.54
		c0,1.76,0.37,3.15,1.1,4.16C209.41,1828.5,210.41,1829,211.69,1829z"/>
	<path class="st4" d="M223.07,1830.25l1.98-10.96c0.37-2.06,0.56-3.82,0.56-5.25c0-0.51-0.02-1-0.07-1.46l1.81-0.24
		c0.05,0.56,0.07,1.07,0.07,1.53c0,1.44-0.21,3.29-0.63,5.57c0.97-2.18,2.07-3.92,3.29-5.24s2.37-1.97,3.46-1.97
		c0.49,0,0.97,0.13,1.46,0.38l-0.52,1.77c-0.35-0.14-0.71-0.21-1.08-0.21c-0.95,0-1.98,0.63-3.08,1.9c-1.1,1.26-2.08,2.77-2.92,4.5
		c-0.85,1.74-1.4,3.35-1.65,4.84l-0.87,4.84H223.07z"/>
	<path class="st4" d="M249.02,1815.95c0,2.04-1.01,3.65-3.04,4.82c-2.03,1.17-4.97,1.84-8.82,2c-0.05,0.51-0.07,0.99-0.07,1.43
		c0,1.58,0.31,2.77,0.94,3.58c0.63,0.81,1.54,1.22,2.75,1.22c0.93,0,1.88-0.18,2.85-0.56c0.97-0.37,1.93-0.92,2.85-1.63l0.59,1.36
		c-1,0.79-2.06,1.39-3.2,1.81c-1.14,0.42-2.28,0.63-3.44,0.63c-1.67,0-2.96-0.54-3.88-1.62c-0.92-1.08-1.37-2.59-1.37-4.54
		c0-2.23,0.46-4.3,1.39-6.23c0.93-1.93,2.11-3.43,3.55-4.52c1.44-1.09,2.95-1.63,4.52-1.63c1.3,0,2.35,0.37,3.17,1.1
		S249.02,1814.82,249.02,1815.95z M244.6,1813.62c-1.65,0-3.15,0.73-4.51,2.17c-1.36,1.45-2.27,3.31-2.73,5.58
		c3.11-0.14,5.51-0.67,7.22-1.6c1.7-0.93,2.56-2.17,2.56-3.72c0-0.74-0.22-1.33-0.66-1.77
		C246.04,1813.84,245.41,1813.62,244.6,1813.62z"/>
	<path class="st4" d="M250.86,1830.25l1.98-10.96c0.37-2.06,0.56-3.82,0.56-5.25c0-0.51-0.02-1-0.07-1.46l1.81-0.24
		c0.05,0.56,0.07,1.07,0.07,1.53c0,0.74-0.07,1.69-0.21,2.85s-0.33,2.28-0.56,3.37c1.3-2.64,2.64-4.64,4.04-6s2.81-2.04,4.24-2.04
		c1,0,1.77,0.36,2.33,1.08c0.56,0.72,0.83,1.73,0.83,3.03c0,1.14-0.15,2.42-0.45,3.86l-2.05,10.23h-1.81l2.05-10.26
		c0.25-1.23,0.38-2.35,0.38-3.37c0-0.93-0.16-1.64-0.47-2.14s-0.77-0.75-1.37-0.75c-1.04,0-2.2,0.68-3.46,2.05
		c-1.26,1.37-2.38,2.96-3.34,4.77c-0.96,1.81-1.57,3.43-1.83,4.87l-0.87,4.84H250.86z"/>
	<path class="st4" d="M275.15,1830.6c-1.69,0-3.05-0.63-4.07-1.9c-1.02-1.26-1.53-2.95-1.53-5.06c0-2.09,0.44-4.03,1.32-5.83
		c0.88-1.8,2.01-3.21,3.37-4.23c1.37-1.02,2.81-1.53,4.31-1.53c1.69,0,3.05,0.63,4.07,1.9c1.02,1.26,1.53,2.95,1.53,5.06
		c0,2.09-0.44,4.03-1.32,5.83c-0.88,1.8-2.01,3.21-3.37,4.23C278.09,1830.09,276.66,1830.6,275.15,1830.6z M275.57,1829
		c1.18,0,2.3-0.49,3.34-1.46c1.04-0.97,1.86-2.2,2.45-3.67s0.89-2.99,0.89-4.54c0-1.76-0.37-3.15-1.1-4.16
		c-0.73-1.01-1.73-1.51-3.01-1.51c-1.18,0-2.3,0.49-3.34,1.46c-1.04,0.97-1.86,2.2-2.45,3.67c-0.59,1.47-0.89,2.99-0.89,4.54
		c0,1.76,0.37,3.15,1.1,4.16C273.29,1828.5,274.29,1829,275.57,1829z"/>
	<path class="st4" d="M288.23,1812.58l1.84-0.24l1.04,15.86c2.74-2.6,4.74-4.91,6.02-6.92c1.28-2.02,1.91-3.9,1.91-5.64
		c0-0.93-0.16-1.92-0.49-2.99l1.77-0.59c0.19,0.42,0.34,0.92,0.45,1.5c0.12,0.58,0.17,1.11,0.17,1.6c0,1.51-0.33,3.01-0.97,4.51
		s-1.69,3.1-3.13,4.8c-1.44,1.71-3.39,3.64-5.84,5.79h-1.57L288.23,1812.58z"/>
	<path class="st4" d="M306.56,1830.6c-1.09,0-1.95-0.52-2.57-1.55c-0.63-1.03-0.94-2.44-0.94-4.23c0-2.41,0.42-4.6,1.27-6.58
		c0.85-1.97,1.96-3.5,3.34-4.58c1.38-1.08,2.87-1.62,4.47-1.62c0.86,0,1.67,0.18,2.44,0.54c0.77,0.36,1.44,0.88,2.02,1.55l0.63-1.81
		l1.57,0.28c-2,5.84-2.99,11.18-2.99,16c0,0.51,0.02,1,0.07,1.46l-1.81,0.24c-0.05-0.56-0.07-1.07-0.07-1.53
		c0-2.06,0.29-4.46,0.87-7.2c-1.25,2.85-2.6,5.07-4.04,6.65S307.96,1830.6,306.56,1830.6z M307.16,1828.93
		c0.6,0,1.28-0.31,2.04-0.94c0.75-0.63,1.5-1.47,2.24-2.52c0.74-1.05,1.45-2.25,2.12-3.58c0.67-1.33,1.28-2.75,1.81-4.26l0.7-1.95
		c-0.46-0.63-1.04-1.12-1.72-1.48s-1.39-0.54-2.1-0.54c-1.42,0-2.68,0.49-3.79,1.48c-1.11,0.99-1.97,2.31-2.57,3.97
		c-0.6,1.66-0.9,3.5-0.9,5.51c0,1.42,0.19,2.49,0.56,3.22C305.89,1828.56,306.44,1828.93,307.16,1828.93z"/>
	<path class="st4" d="M320.55,1829.14c0-0.53,0.18-0.97,0.54-1.32c0.36-0.35,0.79-0.52,1.3-0.52c0.44,0,0.8,0.13,1.08,0.4
		s0.42,0.62,0.42,1.06c0,0.51-0.17,0.95-0.52,1.3c-0.35,0.36-0.79,0.54-1.32,0.54c-0.44,0-0.8-0.13-1.08-0.4
		C320.69,1829.93,320.55,1829.58,320.55,1829.14z"/>
	<path class="st4" d="M327.37,1837.91l3.37-18.61c0.37-2.06,0.56-3.82,0.56-5.25c0-0.51-0.02-1-0.07-1.46l1.81-0.24
		c0.05,0.56,0.07,1.07,0.07,1.53c0,0.7-0.06,1.58-0.17,2.66c-0.12,1.08-0.28,2.14-0.49,3.18c1.09-2.37,2.34-4.23,3.76-5.6
		c1.41-1.37,2.82-2.05,4.21-2.05c1.11,0,1.98,0.52,2.61,1.55c0.63,1.03,0.94,2.44,0.94,4.23c0,2.41-0.42,4.6-1.27,6.58
		c-0.85,1.97-1.96,3.5-3.34,4.58c-1.38,1.08-2.87,1.62-4.47,1.62c-0.79,0-1.53-0.17-2.23-0.5s-1.3-0.83-1.81-1.48l-1.67,9.29H327.37
		z M331.16,1826.88c0.39,0.67,0.91,1.2,1.55,1.57c0.64,0.37,1.33,0.56,2.07,0.56c1.41,0,2.68-0.49,3.79-1.48
		c1.11-0.99,1.97-2.31,2.57-3.97c0.6-1.66,0.9-3.5,0.9-5.51c0-2.88-0.74-4.31-2.23-4.31c-1.02,0-2.13,0.66-3.34,1.98
		c-1.21,1.32-2.28,2.89-3.22,4.71c-0.94,1.82-1.55,3.48-1.83,4.99L331.16,1826.88z"/>
	<path class="st4" d="M350.54,1814h-3.1l0.28-1.6h3.13l1.15-5.04l1.53-0.14l-0.94,5.18h4.63l-0.28,1.6h-4.63l-1.5,8.42
		c-0.35,1.97-0.52,3.47-0.52,4.49c0,0.7,0.13,1.19,0.38,1.5c0.25,0.3,0.68,0.45,1.29,0.45c1,0,2.1-0.38,3.31-1.15l0.45,1.46
		c-1.39,0.95-2.77,1.43-4.14,1.43c-1.04,0-1.84-0.28-2.38-0.83c-0.55-0.56-0.82-1.37-0.82-2.44c0-0.95,0.19-2.43,0.56-4.45
		L350.54,1814z"/>
</g>
<g>
	<g>
		<path class="st3" d="M973.53,217.77c0,12.64-10.25,22.89-22.89,22.89c-12.64,0-22.89-10.25-22.89-22.89
			c0-12.64,10.25-22.89,22.89-22.89C963.28,194.88,973.53,205.13,973.53,217.77z"/>
		
			<ellipse transform="matrix(0.2289 -0.9734 0.9734 0.2289 521.0345 1093.3141)" class="st5" cx="950.64" cy="217.77" rx="38.97" ry="38.97"/>
		<line class="st5" x1="950.64" y1="149.09" x2="950.64" y2="286.45"/>
		<line class="st5" x1="1019.32" y1="217.77" x2="881.96" y2="217.77"/>
	</g>
	<polygon class="st3" points="950.72,115.78 933.43,144.95 950.72,136.2 967.85,144.95 	"/>
</g>
</svg>
