<?xml version="1.0" encoding="utf-8"?>
<!-- Generator: Adobe Illustrator 27.9.0, SVG Export Plug-In . SVG Version: 6.00 Build 0)  -->
<svg version="1.1" id="Camada_1" xmlns="http://www.w3.org/2000/svg" xmlns:xlink="http://www.w3.org/1999/xlink" x="0px" y="0px"
	 viewBox="0 0 1080 1920" style="enable-background:new 0 0 1080 1920;" xml:space="preserve">
<style type="text/css">
	.st0{fill:#C67538;}
	.st1{fill:#E9D198;}
	.st2{fill:none;stroke:#E9D198;stroke-width:0.7002;stroke-miterlimit:10;}
	.st3{fill:#FFFFFF;}
</style>
<g>
	<rect x="-0.39" y="3.33" class="st0" width="1078.13" height="1916.67"/>
	<g>
		<defs>
			<rect id="SVGID_1_" x="-0.39" y="3.33" width="1078.13" height="1916.67"/>
		</defs>
		<use xlink:href="#SVGID_1_"  style="overflow:visible;fill:#C67538;"/>
		<clipPath id="SVGID_00000045617847524311362900000006081299042024001428_">
			<use xlink:href="#SVGID_1_"  style="overflow:visible;"/>
		</clipPath>
	</g>
</g>
<g>
	<g>
		<path class="st1" d="M959.08,220.72c0,12.62-10.23,22.85-22.85,22.85c-12.62,0-22.85-10.23-22.85-22.85
			c0-12.62,10.23-22.85,22.85-22.85C948.84,197.87,959.08,208.1,959.08,220.72z"/>
		
			<ellipse transform="matrix(0.2289 -0.9734 0.9734 0.2289 507.0474 1081.5563)" class="st2" cx="936.22" cy="220.72" rx="38.9" ry="38.9"/>
		<line class="st2" x1="936.22" y1="152.16" x2="936.22" y2="289.28"/>
		<line class="st2" x1="1004.78" y1="220.72" x2="867.67" y2="220.72"/>
	</g>
	<polygon class="st1" points="936.3,118.91 919.05,148.02 936.3,139.29 953.4,148.02 	"/>
</g>
<g>
	<g>
		<path class="st1" d="M435.36,662.72h-15.54v26.76h-28.48v-100.7h46.03c27.48,0,44.74,14.24,44.74,37.26
			c0,14.82-7.19,25.75-19.71,31.79l21.72,31.65h-30.5L435.36,662.72z M435.64,611.22h-15.82v29.49h15.82
			c11.8,0,17.69-5.47,17.69-14.67C453.34,616.69,447.44,611.22,435.64,611.22z"/>
		<path class="st1" d="M575.77,657.4h-56.68c2.3,7.91,9.06,12.51,19.13,12.51c7.62,0,12.66-2.16,17.98-6.76l14.38,14.96
			c-7.48,8.34-18.41,12.66-33.23,12.66c-27.76,0-45.74-17.12-45.74-40.42c0-23.45,18.27-40.13,42.87-40.13
			c23.02,0,41.72,14.67,41.72,40.42C576.2,652.65,575.91,655.24,575.77,657.4z M518.66,643.01h31.94
			c-1.44-8.2-7.48-13.38-15.97-13.38C526.14,629.64,520.24,634.81,518.66,643.01z"/>
		<path class="st1" d="M671.87,644.88v44.59h-27.33v-40.13c0-11.22-4.89-15.97-12.8-15.97c-8.78,0-15.54,5.47-15.54,18.41v37.69
			h-27.33v-77.97h26.04V620c6.19-6.47,14.96-9.78,24.74-9.78C657.92,610.22,671.87,620.72,671.87,644.88z"/>
		<path class="st1" d="M685.26,650.35c0-23.45,18.56-40.13,44.02-40.13c25.75,0,44.02,16.69,44.02,40.13
			c0,23.59-18.27,40.42-44.02,40.42C703.82,690.77,685.26,673.94,685.26,650.35z M745.68,650.35c0-11.8-7.05-18.41-16.4-18.41
			c-9.21,0-16.4,6.62-16.4,18.41c0,11.94,7.19,18.7,16.4,18.7C738.63,669.05,745.68,662.29,745.68,650.35z"/>
		<path class="st1" d="M865.95,611.51l-32.22,77.97h-28.19l-32.08-77.97h28.05l18.7,47.61l19.71-47.61H865.95z"/>
		<path class="st1" d="M943.35,646.18v43.3h-25.46v-10.07c-3.88,7.48-11.65,11.36-23.02,11.36c-18.7,0-29.06-10.5-29.06-24.02
			c0-14.39,10.5-23.3,34.67-23.3h15.54c-0.43-7.91-5.75-12.37-16.54-12.37c-7.48,0-15.82,2.59-21.15,6.76l-9.21-18.56
			c8.92-5.9,22.15-9.06,34.38-9.06C928.82,610.22,943.35,621.44,943.35,646.18z M916.02,664.45v-6.76h-11.8
			c-8.78,0-11.94,3.16-11.94,7.91c0,4.6,3.74,7.91,10.21,7.91C908.54,673.51,913.86,670.63,916.02,664.45z"/>
		<path class="st1" d="M391.34,710.43h28.48v78.11h48.05v22.58h-76.53V710.43z"/>
		<path class="st1" d="M472.62,772c0-23.45,18.56-40.14,44.02-40.14c25.75,0,44.02,16.69,44.02,40.14
			c0,23.59-18.27,40.42-44.02,40.42C491.18,812.42,472.62,795.59,472.62,772z M533.04,772c0-11.8-7.05-18.41-16.4-18.41
			c-9.21,0-16.4,6.62-16.4,18.41c0,11.94,7.19,18.7,16.4,18.7C525.99,790.7,533.04,783.94,533.04,772z"/>
		<path class="st1" d="M653.31,733.16l-32.22,77.97h-28.19l-32.08-77.97h28.05l18.7,47.61l19.71-47.61H653.31z"/>
		<path class="st1" d="M737.47,779.05H680.8c2.3,7.91,9.06,12.51,19.13,12.51c7.62,0,12.66-2.16,17.98-6.76l14.38,14.96
			c-7.48,8.34-18.41,12.66-33.23,12.66c-27.76,0-45.74-17.12-45.74-40.42c0-23.45,18.27-40.14,42.87-40.14
			c23.02,0,41.72,14.67,41.72,40.42C737.91,774.3,737.62,776.89,737.47,779.05z M680.37,764.66h31.94
			c-1.44-8.2-7.48-13.38-15.97-13.38C687.85,751.28,681.95,756.46,680.37,764.66z"/>
		<path class="st1" d="M802.79,731.86v24.6c-2.45-0.29-4.17-0.43-6.19-0.43c-11.08,0-18.7,5.61-18.7,19.28v35.82h-27.33v-77.97
			h26.04v9.35C782.22,735.46,791.29,731.86,802.79,731.86z"/>
		<path class="st1" d="M807.98,804.36l8.2-18.7c7.19,4.46,17.69,7.19,27.19,7.19c9.21,0,12.23-2.01,12.23-5.32
			c0-10.5-46.03,1.44-46.03-29.78c0-14.67,13.52-25.89,37.98-25.89c10.93,0,23.02,2.3,30.78,6.62l-8.2,18.56
			c-7.77-4.32-15.54-5.75-22.44-5.75c-9.21,0-12.51,2.59-12.51,5.47c0,10.79,45.89-0.86,45.89,30.06
			c0,14.39-13.23,25.61-38.55,25.61C829.27,812.42,815.61,809.11,807.98,804.36z"/>
	</g>
	<g>
		<path class="st1" d="M308.89,676.55l-5.37,45.46h39.46v40.72h-44.51l-6,47.04h-42.93l6-47.04h-38.83l-6,47.04h-42.93l6-47.04H134
			v-40.72h44.83l5.37-45.46h-39.78v-40.72h44.83l6-47.04h42.93l-6,47.04h38.83l6-47.04h42.93l-6,47.04h39.78v40.72H308.89z
			 M265.96,676.55h-38.83l-5.37,45.46h38.83L265.96,676.55z"/>
	</g>
</g>
<g>
	<g>
		<path class="st3" d="M321.37,1238.46c-6.57-22.38-4.06-44.65,1.7-66.61c5.76-21.98,15.72-41.75,35.06-55.19
			c11.41-7.92,23.99-11.98,38.18-9.37c18.75,3.46,29.43,17.68,27.49,36.92c-1.71,16.92-10.33,30.25-24.2,38.9
			c-11.69,7.29-24.91,12.35-37.89,17.24c-4.93,1.86-6.35,3.68-6.28,8.54c0.29,21.17,10.5,30.24,31.22,26.16
			c21.65-4.26,36.84-18.22,48.89-35.76c2.13-3.11,2.09-7.9,2.51-11.97c2.33-22.92,4.48-45.86,6.71-68.8
			c0.17-1.78,0.52-3.53,0.93-6.3c11.39,0,22.64,0,34.7,0c-1.84,12.92-3.78,26.52-5.78,40.52c7.85-9.59,14.82-19.28,23.04-27.76
			c5.65-5.82,12.46-11.18,19.77-14.57c12.45-5.78,24.86,1.1,26.46,14.74c1.19,10.12,0.48,20.62-0.57,30.82
			c-2.56,24.97-5.84,49.87-8.72,74.8c-0.29,2.51,0.13,5.11,0.22,7.66c-11.94,0-23.89,0-35.83,0c1.79-14.89,3.77-29.76,5.3-44.67
			c1.21-11.83,2.19-23.71,2.5-35.59c0.07-2.7-2.48-6.32-4.88-7.91c-1.34-0.89-5.54,0.86-7.28,2.6c-4,3.99-7.67,8.45-10.79,13.16
			c-14.6,22.05-15.48,47.21-16,72.41c-11.94,0-23.89,0-35.83,0c0.39-4.66,0.78-9.32,1.28-15.4c-4.67,5.89-8.43,10.64-12.19,15.4
			C387.84,1238.46,354.61,1238.46,321.37,1238.46z M357.12,1180.79c20.11-0.88,37.6-22.09,34.22-40.86
			c-1.07-5.96-3.88-10.86-10.28-12.36c-6.61-1.55-10.16,2.83-12.92,7.69C360.13,1149.36,358.29,1164.92,357.12,1180.79z"/>
		<path class="st3" d="M283.98,1064.17c3.25,0.68,6.54,1.21,9.76,2.05c13.76,3.59,23.02,15.42,24.59,30.56
			c3.16,30.51-13.71,60.42-39.05,69.21c-0.41,0.14-0.66,0.74-1.23,1.44c9,5.79,13.23,14.83,15.9,24.59
			c4.21,15.41,7.92,30.95,11.85,46.44c-14.54,0-29.08,0-43.62,0c-2.18-15.09-3.84-30.29-6.75-45.24
			c-1.55-7.95-5.77-14.93-14.79-17.42c-5.27-1.45-7.48-0.26-8.04,5.52c-1.83,19.07-4.13,38.1-6.25,57.14
			c-11.68,0-23.39-0.4-35.04,0.19c-4.91,0.25-3.83-2.29-3.9-4.86c0.44-1.17,1.12-2.32,1.28-3.53
			c6.84-54.54,18.27-108.59,17.96-164.35c7.99,0,15.96,0.21,23.91-0.05c11.59-0.38,23.16-1.11,34.74-1.69
			C271.52,1064.17,277.75,1064.17,283.98,1064.17z M235.02,1155.32c19.34,2.3,30.6-2.48,36.66-15.82c5.35-11.77,7.4-24.27,4.29-37.1
			c-3.06-12.59-16.33-20.07-28.5-16.11c-1.57,0.51-3.56,2.51-3.77,4.03C240.66,1111.83,237.9,1133.36,235.02,1155.32z"/>
		<path class="st3" d="M774.73,1238.46c-4.66-35.13-0.41-68.79,18.33-99.45c16.16-26.44,49.77-37.93,82.08-29.14
			c4.96,1.35,9.92,2.73,14.87,4.1c0,1.56,0,3.11,0,4.67c-0.81,4.28-1.9,8.53-2.38,12.85c-3.95,35.65-7.78,71.32-11.64,106.98
			c-10.91,0-21.81,0-32.72,0c0-4.36,0-8.73,0-14.99c-4.43,6.09-7.67,10.54-10.91,14.99
			C813.15,1238.46,793.94,1238.46,774.73,1238.46z M808.14,1199.98c0.67,0.17,1.34,0.34,2.01,0.51c0.27,4.65-0.06,9.44,0.99,13.9
			c0.83,3.52,2.83,8.8,5.27,9.39c3.13,0.76,8.01-1.52,10.74-4.01c10.32-9.42,15.68-21.79,17.9-35.34
			c2.13-13.01,3.33-26.17,5.12-39.24c0.64-4.69,1.89-9.16-3.5-12.2c-5.53-3.12-11.4-3.73-15.97,0.34
			c-4.28,3.81-8.76,8.81-10.23,14.09C815.63,1164.74,812.14,1182.43,808.14,1199.98z"/>
		<path class="st3" d="M553.5,1238.46c-10-42.5-4.82-81.88,25.63-115.11c14.94-16.3,34.65-21.28,56.14-16.94
			c16.29,3.29,26.31,14.38,30.14,30.11c8.1,33.32,3.16,65.12-13.08,95.24c-1.22,2.26-2.53,4.47-3.8,6.71c-10.91,0-21.81,0-32.72,0
			c1.9-4.23,4.44-8.29,5.6-12.71c6.62-25.2,9.39-50.89,8.78-76.92c-0.11-4.61-0.37-9.64-2.28-13.65c-1.93-4.04-5.4-8.49-9.31-10.16
			c-5.49-2.35-10.93,1-13.82,6.03c-3.45,5.99-7.04,12.33-8.48,18.96c-3.01,13.89-5.77,28.01-6.55,42.15
			c-0.85,15.36,0.66,30.86,1.14,46.3C578.43,1238.46,565.96,1238.46,553.5,1238.46z"/>
		<path class="st3" d="M689.04,1238.46c-3.15-29.36-6.24-58.73-9.49-88.08c-1.37-12.33-3.08-24.63-4.75-37.78
			c13.46,0,26.49,0,40.02,0c1.69,33.79,3.39,67.74,5.09,101.68c0.83,0.15,1.66,0.3,2.5,0.46c11.6-33.92,23.2-67.83,35.14-102.73
			c10.23,0,21.31,0,33.14,0c-6.24,12.32-13.05,24.49-18.69,37.18c-12.62,28.38-24.66,57.02-36.9,85.58c-0.49,1.15-0.6,2.47-0.88,3.7
			C719.16,1238.46,704.1,1238.46,689.04,1238.46z"/>
	</g>
</g>
</svg>
