<svg width="45" height="45" viewBox="0 0 45 45" fill="none" xmlns="http://www.w3.org/2000/svg">
<g clip-path="url(#clip0_60_37)">
<path d="M38.4225 14.9419L20.5388 1.82812C19.1419 0.805275 17.4892 0.189202 15.7636 0.0481841C14.0381 -0.0928336 12.3072 0.246713 10.7629 1.02919C9.21849 1.81166 7.92096 3.0065 7.01409 4.48125C6.10722 5.95601 5.62643 7.65309 5.62501 9.38437V35.625C5.62232 37.358 6.10059 39.0577 7.0066 40.535C7.91261 42.0122 9.21081 43.2091 10.7567 43.9924C12.3026 44.7756 14.0355 45.1145 15.7625 44.9713C17.4896 44.8281 19.143 44.2084 20.5388 43.1812L38.4225 30.0675C39.6092 29.1966 40.5741 28.0586 41.2392 26.7456C41.9043 25.4325 42.2509 23.9813 42.2509 22.5094C42.2509 21.0375 41.9043 19.5862 41.2392 18.2732C40.5741 16.9601 39.6092 15.8221 38.4225 14.9512V14.9419Z" fill="white"/>
</g>
<defs>
<clipPath id="clip0_60_37">
<rect width="45" height="45" fill="white"/>
</clipPath>
</defs>
</svg>
